<svg xmlns="http://www.w3.org/2000/svg" width="43" height="43" viewBox="0 0 43 43">
    <g fill="none" fill-rule="evenodd">
        <circle cx="21.49" cy="21.49" r="21.49" fill="#F6FCFE"/>
        <path fill="#263D43" fill-rule="nonzero" d="M29.8 11c1.764 0 3.204 1.496 3.204 3.33v13.319c0 1.834-1.44 3.33-3.205 3.33H12.705c-1.765 0-3.205-1.496-3.205-3.331l.01-13.318c0-1.835 1.43-3.33 3.195-3.33H29.8zm0 2.22H12.704c-.581 0-1.058.498-1.058 1.11l-.01 13.319c0 .608.483 1.11 1.068 1.11H29.8c.585 0 1.069-.502 1.069-1.11v-13.32c0-.607-.484-1.11-1.069-1.11zm-2.119 2.142c.303-.175.69-.072.865.23l.469.808c.17.295.078.671-.21.853l-7.543 4.755-.006.012-7.362-4.609c-.29-.18-.383-.558-.212-.853l.468-.807c.175-.302.562-.405.865-.23l.018.012 6.188 3.873 6.442-4.033.01-.005z"/>
    </g>
</svg>
