<svg xmlns="http://www.w3.org/2000/svg" xmlns:xlink="http://www.w3.org/1999/xlink" width="40" height="40" viewBox="0 0 40 40">
    <defs>
        <filter id="prefix__a" width="217.5%" height="217.5%" x="-58.8%" y="-53.8%" filterUnits="objectBoundingBox">
            <feOffset dx="2" dy="2" in="SourceAlpha" result="shadowOffsetOuter1"/>
            <feGaussianBlur in="shadowOffsetOuter1" result="shadowBlurOuter1" stdDeviation="3.5"/>
            <feColorMatrix in="shadowBlurOuter1" result="shadowMatrixOuter1" values="0 0 0 0 0.258823529 0 0 0 0 0.294117647 0 0 0 0 0.352941176 0 0 0 0.15 0"/>
            <feMerge>
                <feMergeNode in="shadowMatrixOuter1"/>
                <feMergeNode in="SourceGraphic"/>
            </feMerge>
        </filter>
        <filter id="prefix__b" width="200.5%" height="200.5%" x="-50.3%" y="-44%" filterUnits="objectBoundingBox">
            <feOffset dy="2" in="SourceAlpha" result="shadowOffsetOuter1"/>
            <feGaussianBlur in="shadowOffsetOuter1" result="shadowBlurOuter1" stdDeviation="5"/>
            <feColorMatrix in="shadowBlurOuter1" values="0 0 0 0 0.937254902 0 0 0 0 0.949019608 0 0 0 0 0.956862745 0 0 0 1 0"/>
        </filter>
        <circle id="prefix__c" cx="20" cy="20" r="15.918"/>
    </defs>
    <g fill="none" fill-rule="evenodd" filter="url(#prefix__a)">
        <use fill="#000" filter="url(#prefix__b)" xlink:href="#prefix__c"/>
        <use fill="#F6FCFE" xlink:href="#prefix__c"/>
        <g fill="#263D43" fill-rule="nonzero">
            <path d="M13.648 2.993c1.057 0 1.92.896 1.92 1.994v7.973c0 1.098-.863 1.993-1.92 1.993H3.415c-1.056 0-1.918-.895-1.918-1.994l.006-7.972c0-1.099.856-1.994 1.912-1.994h10.233zm0 1.33H3.415c-.348 0-.633.297-.633.664l-.006 7.973c0 .364.289.664.64.664h10.232c.35 0 .64-.3.64-.664V4.987c0-.364-.29-.665-.64-.665zM12.162 5.74c.304-.176.694-.072.87.232.184.317.084.724-.227.92l-4.268 2.69-.003.007-4.16-2.604c-.31-.195-.411-.6-.227-.918.176-.304.565-.407.87-.231l.017.01 3.479 2.178 3.631-2.272.01-.006z" transform="translate(11.02 11.02)"/>
        </g>
    </g>
</svg>
