<svg xmlns="http://www.w3.org/2000/svg" width="20" height="20" viewBox="0 0 20 20">
    <g fill="none" stroke="#263D43">
        <path fill="#263D43" stroke-width=".5" d="M4.817 5.126c.726-.264 1.39-.27 1.993-.001.613.273 1.157.821 1.641 1.632h0l3.782 10.271-4.872 2.094L3.289 8.874c-.223-1.018-.213-1.826.045-2.45.255-.614.756-1.033 1.483-1.298zm4.17 4.409L4.436 11.45l1.436 3.201 4.55-1.914-1.435-3.202z"/>
        <path stroke-linejoin="round" stroke-width="1.525" d="M4.4 6.5L4.4 1.463" transform="rotate(-20 4.4 3.982)"/>
        <path stroke-width=".5" d="M16.872 2.096c-.393-.105-.797-.052-1.139.124-.346.18-.624.489-.81 1L13.85 6.17l2.982 1.086 1.123-3.084c.151-.416.117-.855-.077-1.23-.19-.37-.536-.675-1.005-.846z"/>
        <path fill="#263D43" stroke-width=".5" d="M13.472 11.44c-.37-.173-.645-.473-.793-.828-.15-.36-.164-.775.022-1.286l1.074-2.951 2.982 1.085-1.123 3.084c-.151.417-.459.73-.849.893-.384.16-.844.173-1.313.002z"/>
    </g>
</svg>
