<svg xmlns="http://www.w3.org/2000/svg" width="30" height="41" viewBox="0 0 30 41">
    <g fill="none" fill-rule="evenodd">
        <path fill="#FDB9B9" d="M30 0l-.305 26.24C29.6 34.418 22.942 41 14.762 41 6.703 41 .17 34.467.17 26.409l.001-.17L.476 0H30z"/>
        <path fill="#263D43" fill-rule="nonzero" d="M16.354 13.4c1.197 0 2.167.97 2.167 2.167v3.986H22.5c1.361 0 2.468 1.088 2.5 2.442v2.943c0 1.361-1.088 2.468-2.441 2.5h-4.038v3.026c0 1.197-.97 2.167-2.167 2.167h-2.708c-1.197 0-2.167-.97-2.167-2.167l-.001-3.026H7.5c-1.361 0-2.468-1.087-2.5-2.44v-2.944c0-1.361 1.088-2.468 2.441-2.5H7.5l3.978-.001v-3.986c0-1.197.971-2.167 2.168-2.167h2.708zm.046.77h-2.754c-.757 0-1.373.6-1.397 1.35v14.944c0 .756.6 1.372 1.35 1.397H16.355c.757 0 1.373-.6 1.397-1.35V15.566c0-.757-.6-1.373-1.35-1.397zm2.121 12.499H22.5c.939 0 1.703-.747 1.73-1.68v-2.935c0-.939-.747-1.703-1.679-1.73l-4.03-.001v6.346zm-7.043 0v-6.346H7.5c-.939 0-1.703.748-1.73 1.68v2.935c0 .94.747 1.703 1.679 1.73l.051.001h3.978zm4.876-.856c.213 0 .385.173.385.385 0 .203-.157.369-.356.384h-2.737c-.213 0-.385-.172-.385-.384 0-.203.157-.369.356-.384h2.737zm3.792-1.33c.225 0 .407.182.407.407 0 .224-.182.406-.407.406-.224 0-.406-.182-.406-.406 0-.225.182-.407.406-.407zm-11.917 0c.224 0 .406.182.406.407 0 .224-.182.406-.406.406-.225 0-.407-.182-.407-.406 0-.225.182-.407.407-.407zm13.949-1.49c.224 0 .406.183.406.407 0 .224-.182.406-.406.406-.225 0-.407-.182-.407-.406 0-.224.182-.406.407-.406zm-12.324 0c.224 0 .406.183.406.407 0 .224-.182.406-.406.406-.225 0-.407-.182-.407-.406 0-.224.182-.406.407-.406zm10.292-1.354c.225 0 .407.182.407.407 0 .224-.182.406-.407.406-.224 0-.406-.182-.406-.406 0-.225.182-.407.406-.407zm-11.917 0c.224 0 .406.182.406.407 0 .224-.182.406-.406.406-.225 0-.407-.182-.407-.406 0-.225.182-.407.407-.407zm8.125-1.92c.213 0 .385.172.385.385 0 .202-.157.369-.356.383l-.029.001h-2.708c-.213 0-.385-.172-.385-.384 0-.203.157-.37.356-.384h2.737z"/>
    </g>
</svg>
