<svg xmlns="http://www.w3.org/2000/svg" width="30" height="41" viewBox="0 0 30 41">
    <g fill="none" fill-rule="evenodd">
        <path fill="#FFC491" d="M30 0l-.305 26.24C29.6 34.418 22.942 41 14.762 41 6.703 41 .17 34.467.17 26.409l.001-.17L.476 0H30z"/>
        <path fill="#263D43" fill-rule="nonzero" d="M17.147 15.211c-.701 1.229-1.42 1.809-2.147 1.809-.452 0-.967-.323-1.481-.878-.19-.206-.366-.428-.522-.65-.041-.058-.078-.113-.112-.164l-.078-.123c-.102-.173-.306-.248-.49-.18l-7.24 2.685c-.205.075-.319.303-.263.522l.993 3.856.01.032c.067.201.267.323.47.28l2.752-.574v8.74c0 .24.186.434.414.434h11.089l.03-.001c.215-.017.384-.204.384-.433v-8.742l2.842.577c.217.044.428-.098.48-.322l.91-3.856c.051-.217-.064-.44-.265-.513l-7.283-2.685c-.186-.069-.392.01-.493.186zM5.713 18.394l6.58-2.44.037.054c.177.251.376.503.595.739.655.707 1.347 1.141 2.075 1.141h.064c.96-.028 1.822-.676 2.59-1.893l.023-.036 6.617 2.439-.724 3.072-2.95-.599-.03-.005c-.244-.03-.462.17-.462.432v8.834H9.868v-8.834l-.002-.033c-.018-.257-.247-.445-.493-.393l-2.868.597-.792-3.075z"/>
    </g>
</svg>
