<svg xmlns="http://www.w3.org/2000/svg" width="30" height="41" viewBox="0 0 30 41">
    <g fill="none" fill-rule="evenodd">
        <path fill="#A4D1FA" d="M30 0l-.305 26.24C29.6 34.418 22.942 41 14.762 41 6.703 41 .17 34.467.17 26.409l.001-.17L.476 0H30z"/>
        <path fill="#263D43" fill-rule="nonzero" d="M6.169 29.568c-.002.212-.175.383-.388.381-.202-.001-.367-.16-.38-.359l-.001-.028.085-10.573c.002-.212.175-.383.388-.381.202.001.367.16.38.359l.001.028-.02 2.497 13.53.072c-.472-.24-.923-.586-1.35-1.037.911-.963 1.928-1.445 3.051-1.445.926 0 1.779.327 2.56.98v-4.078c0-.212.172-.384.384-.384.203 0 .369.157.383.356l.001.028.002 5.923c.003.022.005.044.005.067l-.007.062.002 1.575c.003.02.005.039.005.059l-.007.074v5.945c0 .213-.172.385-.384.385-.203 0-.369-.157-.384-.356v-.029l-.001-2.443H6.187l-.018 2.322zm17.855-5.509l-17.812.122-.019 2.296h17.831v-2.418zM6.227 22.261l-.009 1.151 17.806-.122v-.936l-17.797-.093zm16.903-.68l.894.004v-.594c-.288.242-.586.438-.894.59zm-1.665-1.73c-.65 0-1.257.202-1.834.62l-.075.056.006.004c.576.437 1.18.655 1.828.671h.075c.65 0 1.257-.2 1.835-.62l.074-.055-.005-.004c-.576-.437-1.181-.656-1.829-.671l-.075-.001z"/>
    </g>
</svg>
