<svg xmlns="http://www.w3.org/2000/svg" width="30" height="41" viewBox="0 0 30 41">
    <g fill="none" fill-rule="evenodd">
        <path fill="#FDC2FD" d="M30 0l-.305 26.24C29.6 34.418 22.942 41 14.762 41 6.703 41 .17 34.467.17 26.409l.001-.17L.476 0H30z"/>
        <path fill="#263D43" fill-rule="nonzero" d="M20.561 13.6c.793 0 1.686 1.862 2.743 5.01l.078.235c.843 2.55 1.47 5.113 1.488 6.211v.05c0 .52-.357 1.977-1.086 4.456l-.244.823-.115.383-.012-.004c-.092.419-.311.814-.654 1.123-.167.15-.356.274-.561.365-1.457.648-3.163-.008-3.811-1.465l-.02-.045-1.28-3.017c-.258-.606-.156-1.283.222-1.78l.01-.013c.157-.387.404-.74.735-1.028l1.887-1.642c.163-.142.352-.235.55-.28l.002.244c0-.729-.054-1.559-.158-2.563l-.05-.469c-.038-.327-.079-.67-.13-1.085l-.234-1.861c-.12-.982-.142-1.274-.163-1.791-.02-.5-.001-.88.07-1.164.102-.416.341-.693.733-.693zm-.069 10.245l-.025.02-1.888 1.643c-.21.183-.376.406-.49.656l-.029.069-.04.1-.074.096c-.204.267-.258.62-.141.938l.018.045 1.295 3.05c.468 1.053 1.701 1.527 2.755 1.06.128-.058.246-.135.35-.229.534-.48.587-1.296.129-1.842l-.032-.036-2.51-2.782 1.356-1.829c.202-.272.183-.65-.045-.9-.164-.18-.437-.204-.629-.06zm.113-9.363l-.001.004c-.042.17-.06.431-.052.782l.005.156c.02.49.042.777.159 1.73L21 19.442c.037.305.069.575.098.844l.033.311c.098.95.153 1.75.16 2.465.155.069.299.17.42.304.486.534.526 1.336.096 1.915l-.965 1.303 2.07 2.296c.064.07.122.143.174.219.642-2.202.973-3.55.983-3.973v-.02c0-.986-.657-3.657-1.525-6.24-.419-1.25-.849-2.36-1.231-3.174l-.043-.089c-.205-.428-.392-.76-.552-.978-.037-.05-.071-.094-.103-.13l-.011-.012zm-9.608 2.694l.013.024c.078.114.142.234.193.36h3.214c1.013-.026 1.877.69 1.91 1.628v.052c0 .547-.277 1.027-.708 1.34.406.329.664.824.664 1.38 0 .571-.273 1.079-.699 1.408.376.29.616.711.616 1.192 0 .485-.244.91-.627 1.2.383.29.627.715.627 1.2 0 .902-.845 1.6-1.855 1.6h-3.09c-1.01 0-1.855-.698-1.855-1.6 0-.56.197-.982.564-1.251-.347-.286-.564-.691-.564-1.15 0-.601.228-1.042.647-1.307-.336-.316-.549-.753-.563-1.24l-.001-.05-.033.06c-.663 1.15-2.133 1.545-3.283.883-.095-.055-.187-.116-.274-.184-1.007-.78-1.19-2.23-.409-3.236.084-.109.177-.209.28-.3l2.567-2.313c.357-.321.812-.474 1.263-.458.567-.036 1.118.255 1.403.762zm3.348 8.984h-3.09c-.764 0-1.055.24-1.055.8 0 .423.457.8 1.055.8h3.09c.598 0 1.055-.377 1.055-.8 0-.423-.457-.8-1.055-.8zm0-2.4h-3.09c-.764 0-1.055.24-1.055.8 0 .423.457.8 1.055.8h3.09c.598 0 1.055-.377 1.055-.8 0-.423-.457-.8-1.055-.8zm.084-2.8h-1.984c.048.638-.319 1.26-.945 1.51l-.042.017c-.336.122-.687.121-1.003.02.18.26.486.438.838.452h3.135c.587 0 1.055-.45 1.055-1 0-.534-.445-.976-1.01-.998l-.044-.001zM9.687 17.21l-.042.002-.04.002-.041-.001c-.239-.01-.471.067-.658.219l-.04.033L6.3 19.78c-.067.06-.128.125-.183.196-.51.658-.39 1.604.267 2.114.058.045.12.086.183.123.752.433 1.71.188 2.163-.545l.027-.045.826-1.434.544.955h.157v.273l.055.081c.189.238.51.342.807.25l.05-.016.009-.004c.35-.14.527-.528.408-.88l-.014-.037-1.065-2.674-.015-.077c-.023-.127-.07-.249-.137-.359l-.03-.046-.023-.034-.031-.056-.02-.032c-.12-.189-.327-.307-.548-.32h-.042zm4.79 1.15l-2.994-.001.717 1.799h2.227c.619 0 1.1-.423 1.1-.919v-.025c-.016-.462-.469-.85-1.05-.855z"/>
    </g>
</svg>
