<svg xmlns="http://www.w3.org/2000/svg" width="30" height="41" viewBox="0 0 30 41">
    <g fill="none" fill-rule="evenodd">
        <path fill="#96EFB1" d="M30 0l-.305 26.24C29.6 34.418 22.942 41 14.762 41 6.703 41 .17 34.467.17 26.409l.001-.17L.476 0H30z"/>
        <path fill="#263D43" fill-rule="nonzero" d="M19.312 13.15c2.128 2.652 3.288 7.472 3.288 11.472 0 .211-.163.384-.37.4H19.4v7.579c0 .21-.163.383-.37.399H19c-.211 0-.384-.162-.399-.37l-.001-.03V13.4c0-.377.475-.544.712-.25zM15 13c.22 0 .4.18.4.4 0 4.126-1.225 6.386-3.7 6.586v12.56c0 .221-.18.4-.4.4-.211 0-.384-.163-.399-.37l-.001-.03V19.982c-2.435-.234-3.59-2.496-3.495-6.59.006-.22.189-.395.41-.39.22.005.395.188.39.41-.085 3.666.822 5.524 2.694 5.763v-5.719c0-.22.18-.4.4-.4.212 0 .385.163.4.37V19.182c1.926-.205 2.9-2.07 2.9-5.781 0-.221.18-.4.4-.4zm4.4 1.69v9.532h2.396v-.004c-.064-3.203-.882-6.889-2.315-9.39l-.081-.139z"/>
    </g>
</svg>
