<svg xmlns="http://www.w3.org/2000/svg" width="24" height="24" viewBox="0 0 24 24">
    <g fill="#263D43">
        <path d="M22.743 4.657c.757 0 1.371.614 1.371 1.372v12.114c0 .757-.614 1.371-1.371 1.371H2.4c-.757 0-1.371-.614-1.371-1.371V6.029c0-.758.614-1.372 1.371-1.372zm0 1.143H2.4c-.126 0-.229.102-.229.229v12.114c0 .126.103.228.229.228h20.343c.126 0 .228-.102.228-.228V6.029c0-.127-.102-.229-.228-.229zm-1.564 8.853c.315 0 .571.256.571.571 0 .284-.207.52-.479.564l-.092.008H14.06c-.315 0-.571-.256-.571-.572 0-.284.207-.52.479-.564l.092-.007h7.118zm0-3.2c.315 0 .571.256.571.571 0 .284-.207.52-.479.564l-.092.008H14.06c-.315 0-.571-.256-.571-.572 0-.284.207-.52.479-.564l.092-.007h7.118zm0-3.2c.315 0 .571.256.571.571 0 .284-.207.52-.479.564l-.092.008H14.06c-.315 0-.571-.256-.571-.572 0-.284.207-.52.479-.564l.092-.007h7.118z"/>
        <path d="M7.543 12.116c2.02 0 3.657 1.624 3.657 3.627H3.886c0-2.003 1.637-3.627 3.657-3.627zm0-4.145c1.154 0 2.09.928 2.09 2.073 0 1.144-.936 2.072-2.09 2.072s-2.09-.928-2.09-2.072c0-1.145.936-2.073 2.09-2.073z"/>
    </g>
</svg>
