<svg xmlns="http://www.w3.org/2000/svg" width="137" height="135" viewBox="0 0 137 135">
    <g fill="none" fill-rule="evenodd">
        <path fill="#F2F5F7" d="M0 0H137V134.666H0z"/>
        <path fill="#C2D1D9" d="M108.92 131.012l9.17 1.768-.354 2.063h1.66l4-22.478.924 22.478h1.633l-.3-7.582 4.19-.107.436 7.689h.817l-.436-7.716 6.286-.16v-1.608l-5.17.134-.381-2.706 5.578.16v-.803l-5.687-.161-.762-5.278 3.374-3.644 3.102 1.93v-.965l-2.53-1.581 2.53-2.76v-1.205l-6.64 7.207c-.353-2.01-1.224-7.073-1.604-9.217l8.244 1.394v-1.635l-4.109-.696.98-6.028c1.088.214 2.15.428 3.129.643v-1.662l-2.34-.482 2.34-2.947v-2.625l-4.136 5.197-5.36-1.098 2.285-15.78L137 82.035v-2.732l-.762-.134.762-5.09V62.96l-.843 5.627-7.674-1.822c.381-1.983 1.415-7.26 1.796-9.27L137 58.728v-1.635l-4.326-.804 3.4-18.272.926.161v-2.733l-2.231-.401.598-4.126 1.633-.349v-.83l-1.524.321 1.334-9.109.19.027V.643l-.49 3.376-5.142.321-.245-4.34h-.817l.245 4.394-4.353.268-.19-4.662h-1.633l.19 4.769-6.04.375.925-5.117h-1.66l-.898 4.983-9.115-2.384.49-2.6h-2.776l-.925 4.957-6.258 1.045-.762-6.001h-1.66l.79 6.27-6.123 1.017-2.639-5.278c1.55-.455 4.19-1.205 7.02-2.01h-5.877l-1.878.537-.272-.536H83.86l.653 1.286c-.953.268-2.231.616-3.51.964-.19-.536-.49-1.34-.79-2.25h-.87l.87 2.465c-1.523.428-2.884.803-3.428.937L72.84 2.224l.245-2.197h-.816l-.218 1.929L66.99.402 67.126 0h-1.741l-.654 1.768L60.405 0h-1.524l-1.333 3.403-6.204-2.117L52.08 0h-1.905c-.925 1.554-1.931 3.054-2.993 4.394L46.447 0h-1.66l.218 1.232-4.136 2.412L38.692 0h-.952l5.115 8.547c-.109.08-.245.16-.354.24-1.632 1.046-3.755 1.823-6.203 2.412L37.114 0h-.816l-.844 11.386c-.898.188-1.823.349-2.775.51L31.78.026h-1.66l.3 4.02-9.878-1.18-.081-2.84h-1.633l.054 2.653-2.285-.268L14.149.054h-1.17l2.286 2.197-8.327-.992.164-1.205h-.817L6.15 1.179 2.857.777l.109-.723H.19l-.108.67v20.334l7.101 1.286 1.225 5.787-8.326 1.715v.83l2.503-.508.789 5.974-3.292-.616v2.733l3.618.67L.952 57.333l-.87-.16v1.634l.625.107-.625 4.126V74.16l2.23-14.95 7.756 1.42-2.041 20.147-7.918-1.393v2.733l7.265 1.286-7.265 9.136v2.625l7.21-9.055-1.986 13.556-5.251-1.071v1.66c2.122.43 3.89.804 5.006 1.019l-.843 5.76-4.163-.697v1.635l.49.08-.49.536v1.206l1.442-1.581L4 108.64l-1.061 7.314-2.885-1.795v.964l2.749 1.715-.79 5.492-1.931-.053v.803l1.823.054-.327 2.304-1.496.054v1.607l1.251-.027-1.143 7.93h2.776l1.143-7.796 3.129.402-.925 7.368h.816l.653-5.064 5.224 5.064h1.17l-6.285-6.055.163-1.206 10.639 1.393.136 5.868h1.633l-.136-5.653 9.468 1.232.327 4.42h1.66l-.164-2.276 4.898-.831-.217 3.108h.816l.081-.938.572.938h.952l-1.415-2.358.055-.884 6.72-1.125.735 4.367h1.66l-2.313-13.69 11.7.883c-1.279 3.858-3.156 8.6-5.632 12.807h1.904c1.007-1.795 1.905-3.644 2.721-5.466l5.442 2.036-1.36 3.43h1.524l-.545-.215 2.721-6.885 5.007 1.152-2.204 5.948h1.741l4.163-11.28 2.259-.294-1.306 11.574h.816l.517-4.635 3.728-.991 2.013 5.626h.87c-.761-2.144-1.713-4.823-2.094-5.84l2.503-.67 3.238 6.51h3.047l-1.387-2.813 10.91-3.322-.598 4.206-6.748 1.929h5.877c.3-.08.6-.16.926-.268l.027.268h1.66l-.082-.724c3.347-.964 6.666-1.902 8.653-2.464l-.599 3.188h2.775l.572-3.965zm-1.47-6.993l-8.598-1.152.87-5.975 8.79 1.474-1.062 5.653zm-18.366-10.556l.599-3.269 9.115 1.688-.463 3.135-9.251-1.554zm9.034 3.161l-.381 2.546-6.04-.858.598-2.652 5.823.964zm-30.502-3.215l-4.055-.107.626-3.43 3.429 1.635c-.055.322-.082.616-.082.938 0 .321.027.643.082.964zm1.251 2.733c.218.268.463.51.708.724l-3.075 4.018-2.911-4.876 5.278.134zm-.19-7.153l-7.81-3.697 8.49-3.055 1.279 5.037c-.79.429-1.442 1.018-1.96 1.715zm-54.12-8.547l1.007-2.223 12.462-2.92-1.796 6.135-11.673-.992zm11.292 2.572l-.843 4.207-3.048-.75.218-3.751 3.673.294zM8.462 13.771c2.776.214 5.986.375 9.36.429l-.027.803-9.741 2.974.408-4.206zm-3.347-1.929l.926-5.117 8.951 1.098c-.081.938-.326 3.376-.462 4.635-3.592-.134-6.857-.375-9.415-.616zm21.197 10.797l1.06 9.324c-2.448.267-9.767 1.098-12.38 1.42l1.143-9.78 10.177-.964zm-8.544-6.778l-.245 6.001-2.068.188-1.905-.349-.544-4.394 4.762-1.446zm9.714 16.905l.38 3.376-13.36 1.608.409-3.537 12.57-1.447zm56.323-.643l-1.523 5.278-6.259 2.385c-.925-2.519-1.632-4.984-2.04-6.457l9.822-1.206zm-8.57-5.117l4.788-.563.544 3.35-4.924.589-.409-3.376zm23.808 34.347l-5.796-1.34 2.884-8.894 4.98.91c-.354 1.635-1.252 5.627-2.068 9.324zm2.884-9.19l6.122 1.126-8 7.34 1.878-8.465zm-54.637 1.85l9.47-.885 1.033 4.046-11.346.321.843-3.483zm0-7.02l8.653 2.974.408 1.58-8.353.777-.708-5.331zm43.1 13.02l-1.55 4.77-6.749-2.626 1.796-4.448 6.503 2.305zm-6.204-3.08l1.551-3.859c2.313 1.313 4.571 2.465 5.877 3.108l-.979 3.055-6.449-2.305zm-4.408 6.563l-3.183-2.652 3.81-5.332 2.013 1.42-2.64 6.564zm-.326.777l-.163.375-7.973.67-4-5.25 3.973-2.626 8.163 6.831zM70.5 65.64l-6.748 3.831L62.2 63.47l4.408-2.92c.762.964 3.102 4.018 3.89 5.09zm-3.7-6.19c-.354-.428-.98-1.232-1.443-1.794l3.32-2.358 1.959 1.634-3.837 2.519zm-.68.456l-4.11 2.706-.57-2.197 3.237-2.304 1.442 1.795zm-4.436 12.432l-7.238-2.117 5.442-4.903 1.796 7.02zm-8.163-2.385l-9.36-2.733 2.095-8.894 11.728-.349 1.66 6.43-6.123 5.546zm-10.149-17.2l-1.279-10.69 3.673-.536 1.443 10.878-3.837.348zm-.082 1.634l3.157-.294-1.524 6.403-3.13-.992 1.497-5.117zm1.442 6.913l-1.36 5.68-3.456-1.019 1.633-5.68 3.183 1.019zm-.897 7.501l-4.463 11.923-3.32-1.367 3.429-11.842 4.354 1.286zm.789.241l4.272 1.26-1.85 5.411c-1.225-.375-3.484-1.071-4.409-1.34l1.987-5.33zm3.727 7.93c.844.295 2.286.778 4 1.367l-2.72 6.082-3.674-.429 2.394-7.02zm.272-.776l1.85-5.466 6.34 1.849-1.523 5.894-6.667-2.277zm8.98-3.376l4.544 1.34 1.877 7.34-7.972-2.76 1.55-5.92zm6.394-2.545l3.51-1.983 1.714 6.028-4.49-1.125-.734-2.92zm4.217-2.412l3.02-1.714 7.7-.643L74.8 75.713l-4.68-1.178-1.905-6.672zm10.204 3.323l3.7 1.205-1.333 4.823-4.353-1.099 1.986-4.93zm.3-.75l3.047-7.556 6.802 2.653-2.394 7.34-7.456-2.437zm10.148 3.027l6.884 1.206-5.768 9.484-3.565-3.188 2.45-7.502zm.844-2.572l3.292-10.1 5.877 1.366c-.598 2.652-1.115 5.063-1.387 6.216l-5.116 3-2.666-.482zm9.877-8.145l2.449 2.947-3.565 2.09 1.116-5.037zm-7.456-8.118c-2.748-1.366-8.924-4.608-11.808-7.02-.137-.106-.273-.24-.409-.374l6.612-5.573 7.429 7.395-1.824 5.572zm-9.985-11.413l-2.15-4.072 2.558-.965 2.802 2.358-3.21 2.68zm-.626.536l-2.585 2.17c-.952-1.447-1.823-3.402-2.612-5.412l2.884-1.098 2.313 4.34zm-2.259 5.09c1.28 1.072 3.13 2.278 5.061 3.403l-1.578 3.911-7.618-5.438 3.51-2.492c.217.214.408.429.625.616zm.49 6.19l-3.782 5.277-6.585-5.519 5.034-3.563 5.333 3.804zm-10.04-2.466l-1.47-4.795 3.647-1.715 1.523 3.912-3.7 2.598zm-1.714-5.6l-1.17-3.83 2.585-3.456 2.176 5.6-3.591 1.687zm.299 6.592l-7.292 5.17-2.64-10.26 7.891-1.501 2.04 6.59zM58.2 47.663L55.1 35.579l7.429-.884 3.51 11.494-7.837 1.474zm-2.476 1.366l-8.544-2.947-.625-4.662 6.965-1.018 2.204 8.627zm-13.74-7.77l-.49-4.045L52.35 35.9l.952 3.697-11.319 1.661zm-.98-6.698l-.817-3.483 11.592.536.435 1.608-11.21 1.34zm.598 17.281l-7.809-8.814-.326-4.85 6.394-.777 1.741 14.441zm-8.435-16.343l-.571-3.483c2.204-.321 4.68-.723 5.932-.884l.87 3.617-6.23.75zm-.517 2.786l.3 4.528-3.456.322.109-4.501 3.047-.349zm.572 5.332l8.244 9.323-12.271 1.153.272-10.101c1.116-.134 3.102-.321 3.755-.375zm8.299 10.931l-6.775 23.443-3.32-1.822 7.047-21.326 3.048-.295zm-5.905 26.39l8.462 3.483-.952 2.786-8.272-3.724.762-2.545zm4.517.107l2.204-5.948 4.435 1.367-2.177 6.43-4.462-1.849zm5.55 3.75l3.729.43-.844 5.465-3.973-2.68 1.089-3.214zm4.6.188l2.829-6.376c2.231.777 4.789 1.661 7.02 2.411l-2.476 12.485-3.156 1.179-5.197-3.51.98-6.189zM62.8 93.316l1.387 4.903-5.85 2.41-2.666-4.634 7.129-2.68zm-4.218-.134l2.367-11.87c1.334.456 2.504.858 3.347 1.153l2.014 7.823-7.728 2.894zm6.612-18.219l9.142 2.304-2.367 3.081-5.034 1.42-1.741-6.805zm10.013 2.519l8.626 2.17-9.633 4.822-1.523-3.724 2.53-3.268zm6.367-.054l1.306-4.769 3.048.992-1.47 4.5-2.884-.723zm4.571 4.42l7.728 6.886-.572 1.072c-3.918-.75-7.319-1.393-9.17-1.742l2.014-6.215zm4.463 2.894l6.013-9.886 4.19.75-6.557 12.405-3.646-3.269zm11.047-9.002l1.333.241-2.585 15.191c-2.095-.402-4.217-.803-6.258-1.179l7.51-14.253zm.462 10.235l6.748 1.58-.816 5.064c-2.04-.375-4.408-.83-6.857-1.286l.925-5.358zm1.034 7.367l4.599.858-2.041 8.359-3.782-.75 1.224-8.467zm5.388 1.019l4.299.803-1.578 8.493-4.735-.937 2.014-8.36zm.326-1.581l.817-5.09 4.49.348-1.035 5.546c-1.007-.188-2.476-.483-4.272-.804zm.953-5.894l.544-3.403 4.544.616-.599 3.135-4.49-.348zm.68-4.207l.843-5.224 4.653.83-.925 5.01-4.571-.616zM109 86.752l-6.748-1.581 1.551-9.056 6.721 1.18-1.524 9.457zm-14.149-14.95l8.245-4.823 6.095 7.368-14.34-2.545zm8.952-5.251l10.72-6.27 2.395 2.867-10.747 6.243-2.368-2.84zm-1.06-1.286l-2.83-3.403 9.033-8.305 4.517 5.438-10.72 6.27zm6.557-17.63l-6.422-.83c.19-1.205.381-2.33.49-2.893l6.34 1.259-.408 2.465zm-.136.778l-.545 3.322-6.394-1.179c.11-.723.3-1.849.49-3l6.449.857zm-7.728 2.01l-4.762-.885 2.123-6.564 3.755.75-1.116 6.698zm-6.911-3.136l-6.72-6.698 5.278-4.447 4.38 2.197-2.938 8.948zm-8.544-7.314l-2.884-2.411 1.605-5.546 9.823-1.179c.136.51.326.992.599 1.42l-9.143 7.716zM82.2 29.605l-1.306-8.225 5.578-.858 1.306 8.413-5.578.67zm-4.544 17.334l-3.537 2.519-4.109-10.53 2.83-3.777c.925 3.242 2.666 8.573 4.816 11.788zM66.527 42.17l-2.367-7.689 8.19-.991c.055.187.109.402.163.643l-5.986 8.037zm-1.306-10.529l-2.64.322-4.489-7.1 7.156-1.099-.027 7.877zm-3.537.429l-6.857.83 2.721-7.367 4.136 6.537zm-8.163-.375l-3.673-13.986 7.836 2.733-4.163 11.253zm-1.959-.938l-6.367-.295-1.714-9.457 5.387-.51 2.694 10.262zm-7.21-.322l-4.354-.187-2.068-8.68 4.735-.456 1.687 9.323zm-6.014-.107l-5.85.884-.571-3.483 5.632-.75.79 3.35zm-5.986 5.278l-2.857.349-.38-3.376c.652-.107 1.605-.241 2.693-.402l.544 3.43zM29.17 55.7l8.435-.777-4.3 12.967-4.407-1.795.272-10.395zm3.89 12.967l-2.394 7.234-2.013-.321.217-8.6 4.19 1.687zm-2.666 8.011l-1.932 5.84.163-6.135c.572.08 1.306.215 1.769.295zm.79.268l3.346 1.849-3.565 12.324-2.693-1.286.109-4.474 2.802-8.413zm3.482 7.314l8.217 3.697-2.557 7.556-7.837-3.724 2.177-7.529zm9.66 4.555l9.25 6.242-7.972 3-3.81-1.821 2.531-7.421zm1.033 12.11l7.32 3.482-1.905 3.483-6.503-1.366 1.088-5.6zm2.286-1.903l7.238-2.732 2.693 4.635-3.156 1.286-6.775-3.189zm16.788 0l1.061 3.778-5.66 2.036-4.434-2.09 9.033-3.724zm-.843-6.001l3.102-1.179 2.448 9.592-2.884 1.044-2.666-9.457zm3.537-10.476l4.843-1.366 4.653 11.306-6.449 1.983-3.047-11.923zm7.4 2.68l9.143-4.582-4.87 14.95-4.272-10.368zm9.089 4.42l7.809 1.474-1.496 8.305-8.925-1.768 2.612-8.01zm7.646 11.708l8.816 1.768-.68 4.716-8.517-4.34.38-2.144zm.272-1.607l1.496-8.333 8.49 1.608-1.225 8.466-8.761-1.741zm10.149 3.67l9.278 1.849-.925 4.903-9.088-1.769.735-4.983zm10.34 11.092l3.972.509-1.224 6.216-3.918-.483 1.17-6.242zm.136-.804l1.823-9.779 4.054.697-1.905 9.591-3.972-.509zm2.122-11.36l1.252-6.644c1.279.268 3.4.697 5.904 1.206l-1.47 6.403-5.686-.965zm1.524-8.225l1.524-8.198 9.795 1.34-1.306 8.921-10.013-2.063zm1.224-18.406l-6.612-1.178-3.755-4.501 10.748-6.243 1.605 1.93-1.986 9.992zm3.51-9.243l6.803 1.635c-.381 1.902-1.36 6.751-1.823 9.109l-6.857-1.206 1.877-9.538zm-1.115-2.84l-8.082-9.725 9.633 1.795-1.551 7.93zm-9.197-11.574l1.605-9.94 11.51 1.635-2.04 10.368-11.075-2.063zm6.176-10.93l.953-6.645 7.564 1.393-1.252 6.296-7.265-1.045zm.572-9.458l-3.102-.563.98-5.519 3.129.322-1.007 5.76zm-.436 2.652c-.272 1.849-.734 5.171-.952 6.671l-3.483-.509 1.116-6.805 3.32.643zm-4.299-3.536l-5.931-1.099v-.348c0-.83-.19-1.634-.49-2.358l5.605-3.322 1.524 3.242-.708 3.885zm-.625 2.625l-1.77 10.931-10.774-2.143 2.313-7.073c1.768-.295 3.292-1.366 4.163-2.867l6.068 1.152zm-11.292-.884c-1.796 0-3.266-1.447-3.266-3.215 0-1.768 1.47-3.215 3.266-3.215 1.795 0 3.265 1.447 3.265 3.215 0 1.768-1.47 3.215-3.265 3.215zm-1.796 2.438l-.844 2.599-3.945-1.983 2.394-2.009c.653.616 1.47 1.099 2.395 1.393zm-4.082-6.832l-5.85.697-1.333-8.44 6.231-.964 2.748 5.52c-.87.856-1.524 1.955-1.796 3.187zm-14.91-8.198l-.409-3.215 11.918-2.224 1.714 3.43-13.224 2.01zm-.273 1.688l.626 4.019-4.761.562-.463-3.884 4.598-.697zm-4.435 8.868l-8.761 1.045V23.63l7.809-1.205.952 8.064zm-8.49-8.52l2.803-9.913 3.456 1.286-1.986 7.957-4.272.67zm-.87.134l-7.02 1.072 4.925-13.289 5.034 1.876-2.939 10.341zm-7.51-2.411l-4.027-1.393 1.415-5.01 4.327 1.768-1.715 4.635zm-4.789-1.661l-3.564-1.233-1.741-6.564 6.748 2.76-1.443 5.037zm-4.707.91l-11.237 1.046-.517-3.59 10.53-2.063 1.224 4.608zM37.36 26.203l-5.578.75-.762-4.742 5.279-.509 1.06 4.501zM31.1 27.863l.572 3.483-2.64.402-.408-3.563 2.476-.322zm-2.584-.482l-.545-4.903 2.232-.214.761 4.769-2.448.348zm-.545 11.467l-.108 4.447c-1.306.108-3.946.349-5.007.43l.163-4.314 4.952-.563zM21.17 65.291l-.136 3.644c-.925-.027-3.13-.107-4.054-.134l.163-3.777 4.027.267zm-3.728-1.902l4.055-6.457-.273 6.725-3.782-.268zm3.538 6.35l-.164 4.34c-1.333-.268-2.748-.536-4.054-.777l.163-3.697 4.055.134zm-.218 5.144l-.68 5.412-4.3-1.099.871-5.117 4.109.804zm-.245 8.493l2.394.59-.244 3.214-2.477-1.178.327-2.626zm.109-.83l.925-7.53 2.013.376-.57 7.716-2.368-.563zm3.755-6.966l2.612.509-.327 12.967-3.183-1.5.898-11.976zm-2.748-1.34l.163-4.448c1.061.054 3.918.215 5.333.295l-.136 5.198c-1.089-.215-3.102-.616-5.36-1.045zm.217-5.278l.136-3.617 5.279.375-.082 3.563-5.333-.321zm.19-5.251l.327-7.93 5.17-.376-.218 8.654-5.278-.348zm.354-8.734l.136-3.189 5.089.134-.082 2.68-5.143.375zm.19-4.796l.219-5.626 5.006-.429-.163 6.189-5.061-.134zm-7.863-9.752l7.456-.884-.163 4.233-7.62-.08.327-3.27zm7.265 4.152l-.217 5.573-8-.214.544-5.439 7.673.08zm-.272 7.207l-.136 3.51-2.612 4.18-5.47-6.805.11-1.099 8.108.214zm-3.238 8.413l-1.986 3.135-4.081-.295.952-9.216 5.115 6.376zm-2.15 4.742l-.38 8.172c-1.796-.349-3.401-.67-4.435-.858l.761-7.609 4.055.295zm-5.278-15.378l-3.292-.456 1.632-9.27 2.612.483-.952 9.243zm.354 23.496l4.435.857-1.578 9.244-3.728-1.769.87-8.332zm4.244 6.94l4.327 1.098-.572 4.5-4.353-2.062.598-3.537zm4.164 8.814l8.87 4.206-.408 1.393-12.326 2.894 3.864-8.493zm9.632 4.554l4.353 2.063-1.904 6.457-4.79-.402 2.34-8.118zm5.85 2.787l3.755 1.768-2.748 11.306-4.735-.482 3.728-12.592zm6.53 14.467l-.408 2.063-10.938-.295.843-2.84 10.503 1.072zm-4.707-1.313L39.808 98.3l4.027 1.929-1.878 9.618-4.843-.536zm7.02-1.982l11.646 2.465-.409 3.268-12.271-.348 1.034-5.385zm7.482.75l1.824-3.322 4.054 1.929-1.442 2.33-4.436-.937zm5.007 1.527l1.578-2.572 5.197 2.465-.68 3.778-6.558-.188.463-3.483zm16.897-.375c1.796 0 3.265 1.447 3.265 3.215 0 1.768-1.469 3.215-3.265 3.215s-3.265-1.447-3.265-3.215c.027-1.768 1.47-3.215 3.265-3.215zm1.633-2.465c-.517-.134-1.061-.214-1.633-.214h-.245l-2.884-11.306 6.558-2.01 1.469 3.59-3.265 9.94zm5.36-7.555l9.142 1.822-.136.803-11.101 7.18c-.245-.32-.49-.616-.79-.884l2.885-8.921zm8.789 3.697l-1.85 10.261-7.973-1.34c-.082-.776-.3-1.5-.653-2.143l10.476-6.778zm2.204 12.592l-.626 2.68-7.32-1.045 1.415-2.733 6.53 1.098zm-1.687-6.135l.898-5.037 8.543 4.34-.353 2.385-9.088-1.688zm18.992 7.394l-8.843-1.473.87-6.082 9.034 1.742-1.061 5.813zm4.19 13.37l-3.755-.724 1.47-7.877 3.89.483-1.605 8.118zm5.388 1.044l-3.782-.723 2.394-12.11 3.537.777-2.15 12.056zm2.285-12.886l-3.51-.777 2.504-12.646 3.32.563-2.314 12.86zm10.285 7.207l-5.36.133-.136-3.482 4.354-4.716c.245 1.849.87 6.216 1.142 8.065zm-1.306-9.083l-4.244 4.608-.626-15.244 3.102.509 1.768 10.127zm2.585-17.307l-.98 6.081-10.475-1.768 1.47-6.376c3.074.67 6.639 1.393 9.985 2.063zm-4.952-12.646l-9.768-1.34 1.197-6.35 9.47 1.662-.899 6.028zm3.21-8.36l-4.162-.722.843-4.26 4.082.803-.762 4.18zm4.11.724l-3.293-.59.79-4.152 3.128.616-.625 4.126zm1.278-8.707l-.571 3.75-8-1.58.817-4.019 7.754 1.849zm-8.217-3.617l-6.802-1.634 1.768-8.868 6.83 1.259-1.796 9.243zm4.163-10.449l-8.897-1.66 1.496-7.502 8.816 1.741-1.415 7.421zm4.544-51.28l-.952 6.485-3.673-.054-.327-6.135 4.952-.295zm-4.68 8.038l3.483.054-1.877 12.806h-2.803l1.197-12.86zm-1.279 13.691h2.776l-1.17 7.957-2.313-.428.707-7.529zm-1.496 7.368l-1.551-.295-.87-20.844 4.38.08-1.96 21.059zm1.66-28.748l.326 6.082-4.462-.08-.245-5.734 4.38-.268zm-4.055 31.052l8.707 1.607-1.877 10.074-8.789-1.741 1.96-9.94zm-.816-2.894l-7.918-1.473c.3-1.768.844-4.77 1.034-5.814l6.64.697.244 6.59zm-.3-7.421l-10.42-1.098.789-4.367 9.414-.08.218 5.545zm-7.074-20.013l6.204-.375.245 6.028-7.455-.054 1.006-5.6zm-1.115 6.403l7.646.053.299 7.18-9.224.081 1.279-7.314zm-9.633-8.949l9.116 2.385-.98 5.519-9.115-2.652.98-5.252zm8 8.708l-2.15 12.11-6.938-14.763 9.088 2.653zm-9.632.053l5.115 10.85-5.632 3.35c-.463-.723-1.061-1.366-1.796-1.849l2.313-12.35zm-1.605-6.35l-3.32 17.764c-.19-.027-.38-.027-.599-.027L98.335 6.725l6.014-1.018zm-7.646 1.287l2.095 16.637c-.055 0-.082.027-.136.027l-7.837-15.7 5.878-.964zM85.166 2.679l5.523 11.065-5.442 1.018-3.782-11.065 3.7-1.018zm-4.49 1.233c.79 2.277 3.13 9.19 3.755 11.011l-5.387.991-1.442-11.172 3.074-.83zm-2.748 16.262l-6.421.991 1.877-7.528 3.891 1.447.653 5.09zm-.789-6.001l-7.727-2.894 1.823-3.938 5.278 1.902.626 4.93zM72.405 3.67l3.537 1.072.462 3.59-4.87-1.741.87-2.92zm-6.068-1.848l5.306 1.634-.98 3.269-1.986 4.286-5.034-1.875 2.694-7.314zM59.453.429l4.898 2.009-1.062 2.84-5.088-1.741L59.453.429zM57.684 5.09l5.034 1.715-2.775 7.475-4.381-1.795 2.122-7.395zM50.364 2.6l6.558 2.224-2.095 7.367-7.21-2.947-.626-2.33c1.224-1.314 2.34-2.76 3.374-4.314zm-9.223 1.634l3.864-2.25.653 3.911c-.735.777-1.497 1.447-2.286 2.063l-2.231-3.724zm2.122 5.814c.816-.536 1.633-1.152 2.395-1.822l1.414 5.358-10.448 2.037-.408-2.867c2.748-.643 5.17-1.527 7.047-2.706zm-7.89 2.867l1.006 7.153-10.938 1.018-.544-6.993c3.673-.134 7.265-.509 10.475-1.178zM30.42 5.573l.49 6.43c-3.265.402-6.775.562-10.23.562l-.191-8.198 9.931 1.206zm-6.312 8.573l.544 7.046-6.313.59.327-7.556c1.768 0 3.619-.026 5.442-.08zM16.27 3.885l2.53.295.082 3.322-2.993-.375c.082-.724.272-2.278.381-3.242zm2.64 4.42l.108 4.26c-1.251 0-2.476-.026-3.673-.08l.463-4.555 3.102.375zM2.476 2.224l12.979 1.554-.38 3.241L2.013 5.412l.462-3.188zm-.571 3.992l3.32.402-.926 5.144-3.156-.322.762-5.224zm5.088 14.306L0 19.263l.898-6.215c1.415.16 3.782.428 6.748.643l-.653 6.831zm.98-1.687l4.19-1.286.517 3.992-4.87-.885.162-1.821zm-.055 3.51l6.557 1.178-1.66 14.227-1.714-.322-3.183-15.084zm-4.653 7.474l5.17-1.071 1.796 8.52-6.122-1.126-.844-6.323zm-.843 27.65L5.17 39.061l3.401.617-3.238 18.298-2.911-.509zm3.727.67l1.47-8.253 3.374.456-.871 8.52-3.973-.724zm4.027 26.094l8.163 3.858-5.523 12.19-4.898-.401 2.258-15.647zm-2.503 17.254l12.897 1.072-.217 3.75-13.523 1.046.843-5.868zm12.625 5.653L20 112.07l-3.374-.107v-4.555l3.673-.268zm-13.604 1.072l9.115-.697v4.474l-9.632-.267.517-3.51zm4.87 18.191l-7.374-.964 1.116-7.636 6.993.938-.735 7.662zM5.414 117l.382-2.6 6.884.188-.3 3.35L5.415 117zm9.47 9.832l-2.504-.321.708-7.663 2.585.348-.79 7.636zm.87-8.44l-2.585-.348.327-3.456 2.64.08-.382 3.725zm3.674 9.056l-2.912-.375.79-7.689 2.666.16-.544 7.904zm-2.041-8.895l.408-3.83 10.72.294.3 4.18-11.428-.644zm2.857 9.003l.571-7.984 8.082.455.653 8.76-9.306-1.231zm8.544-15.218l-7.13-.188.273-4.85 7.755 1.957-.898 3.08zm-2.966-4.903l.87-4.34 4.735.402-1.47 4.983-4.135-1.045zm4.326 7.636l11.21.321.49 2.84-11.373.964-.327-4.125zm.381 4.902l11.455-.964.708 4.126-11.836 1.26-.327-4.422zm.87 11.762l-.435-5.707 11.973-1.286.816 4.903-12.353 2.09zm12.463-11.44l-.817-4.876 14.503.402c-.326 1.232-.843 3.134-1.578 5.385l-12.108-.911zm16.57 10.342l-5.414-2.037c.326-.803.653-1.607.952-2.384l5.687 1.313-1.225 3.108zm-3.89-5.948c1.387-3.831 2.258-7.1 2.666-8.815l3.401.107 3.32 5.6-3.456 4.474-5.932-1.366zm11.509 2.652l-4.68-1.072 3.21-4.152 2.967 1.205-1.497 4.02zm1.796-4.796l-2.748-1.125 3.129-4.045c.408.268.816.455 1.279.616l-1.66 4.554zm1.687.134l1.605-4.367h.381c.653 0 1.306-.107 1.905-.294l1.932 3.884-5.823.777zm2.095 6.645l.707-6.19 3.429-.455 2.421 4.877-6.557 1.768zm6.666-7.636l-2.53-5.09c.843-.83 1.442-1.93 1.66-3.135l4.68.777-3.81 7.448zm4.79 9.592l-1.443-2.867 4.789-1.34.79 2.947-4.137 1.26zm11.4-3.483l-6.476 1.982-.762-2.947 7.7-2.17-.462 3.135zm.707-4.876l-14.285 4.018-2.15-4.34 2.423-4.689 14.448 2.063-.436 2.948zm.273 9.484l1.142-7.93 4.027.535-.952 6.19-4.217 1.205zm8.897-2.545l-3.782 1.071.898-5.814 3.673.483-.789 4.26z" opacity=".5"/>
    </g>
</svg>
