<svg xmlns="http://www.w3.org/2000/svg" width="20" height="20" viewBox="0 0 20 20">
    <g fill="#263D43">
        <path d="M16.257 1.997c.157 0 .307.032.442.091l-.03.02c.194-.157.47-.145.65.017l.057.06 2.631 3.266c.1.125.156.28.156.44 0 .359-.268.654-.615.698l-.088.005H17.37v10.784c0 .145-.027.283-.077.41l-.037.08.013.08c.01.114-.02.23-.089.328l-.058.07c-.132.13-.317.172-.484.128l-.074-.026-.095.023c-.034.006-.069.011-.104.015l-.107.005H4.745c-.248 0-.488-.083-.683-.234l-.093-.082-1.54-1.5c-.44-.429-.45-1.133-.021-1.574.18-.184.416-.3.67-.329l.127-.007h.79V3.11c0-.579.44-1.054 1.005-1.108l.107-.005h11.15zM13.863 15.77H3.205c-.029 0-.056.012-.077.032-.03.032-.038.078-.021.116l.023.035 1.541 1.5c.013.013.03.022.047.027l.027.004H15.56l-1.697-1.714zm2.394-12.768H5.107c-.047 0-.087.03-.1.073L5 3.11 5 14.764h8.99c.157 0 .308.053.43.147l.07.062 1.873 1.892V3.11c0-.047-.03-.087-.073-.101l-.033-.006zm-1.558 9.502c.278 0 .503.225.503.503 0 .25-.182.458-.421.497l-.082.006h-7.64c-.278 0-.503-.225-.503-.503 0-.25.182-.457.422-.496l.081-.007h7.64zm-4.268-2.412l4.457.127c.277.008.496.24.488.517-.007.25-.195.452-.435.485l-.082.004-4.457-.128c-.277-.007-.496-.239-.488-.517.007-.25.195-.452.435-.484l.082-.004zm4.14-2.869c.279 0 .504.225.504.503 0 .25-.183.458-.422.497l-.081.006h-7.64c-.278 0-.503-.225-.503-.503 0-.25.182-.457.421-.496l.082-.007h7.64zm.128-2.486c.278 0 .503.225.503.503 0 .25-.182.458-.421.497l-.082.006h-7.64c-.278 0-.503-.225-.503-.503 0-.25.182-.458.422-.497l.081-.006h7.64zm2.67-.958v1.808h1.456L17.37 3.78z"/>
        <path d="M2.682 6.021l-.956.926L2.92 8.14l2.628 2.628 1.384.443-.444-1.384-3.806-3.807zm-1.654-.713c-.26.26-.26.681 0 .941l.3.241.902-.89-.261-.292c-.26-.26-.681-.26-.94 0z"/>
    </g>
</svg>
