<svg xmlns="http://www.w3.org/2000/svg" xmlns:xlink="http://www.w3.org/1999/xlink" width="20" height="20" viewBox="0 0 20 20">
    <defs>
        <path id="prefix__a" d="M8.167 0c2.54 0 4.809 1.16 6.307 2.978h.002l.016.022c1.15 1.408 1.841 3.207 1.841 5.167 0 4.51-3.656 8.166-8.166 8.166-.795 0-1.563-.113-2.289-.325l-.035.02-.022-.036C2.454 14.984 0 11.862 0 8.167 0 3.657 3.656 0 8.167 0zm.249 11.479v4.017c.455-.015.9-.072 1.33-.166l.048-.083c.647-1.106 1.145-2.19 1.495-3.255-.972-.345-2.006-.516-3.103-.516l.23.003zm-.833.014c-.938.056-1.828.242-2.67.56.308.922.722 1.864 1.242 2.827l.208.374.013.026c.391.098.794.165 1.207.197zm4.479.814l-.018.057c-.29.86-.672 1.73-1.142 2.61 1.005-.405 1.9-1.026 2.627-1.805l-.19-.135c-.413-.28-.838-.522-1.277-.727zm-7.916.08L4 12.458c-.425.219-.837.473-1.237.765l.055-.038c.672.715 1.485 1.296 2.396 1.697-.435-.845-.791-1.677-1.07-2.495zM3.423 8.75l-2.567.001c.112 1.415.625 2.717 1.426 3.792l.268-.189c.435-.296.884-.554 1.347-.774-.27-.961-.427-1.905-.474-2.83zm12.054.001h-2.74c-.037.906-.18 1.823-.432 2.753.623.279 1.22.628 1.793 1.046l-.034-.024c.794-1.072 1.302-2.367 1.413-3.775zM7.583 8.75H4.257c.045.817.183 1.652.414 2.506.92-.343 1.891-.542 2.912-.597V8.75zm4.32 0H8.415l.001 1.895c1.092.022 2.129.205 3.108.546.217-.826.343-1.64.377-2.44zM.837 7.917l2.573-.001.004-.15c.032-.912.173-1.836.422-2.772-.609-.244-1.197-.543-1.763-.897C1.332 5.193.884 6.504.838 7.917zm3.788-2.643l-.065.258c-.193.807-.298 1.602-.317 2.385l3.339-.001v-2.13c-1.033-.047-2.019-.218-2.957-.512zm6.893.066l-.136.04c-.942.26-1.931.4-2.966.418l-.001 2.118h3.49c-.03-.838-.159-1.697-.387-2.576zm2.756-1.233l.318-.205c-.724.485-1.484.876-2.28 1.175.253.964.396 1.911.427 2.84h2.756c-.047-1.407-.49-2.712-1.221-3.81zM8.417.837l-.001 4.125.158-.002c.947-.03 1.85-.17 2.71-.419-.31-.965-.74-1.953-1.286-2.963l-.207-.375L9.67.988C9.263.903 8.845.852 8.417.838zm-1.954.195l-.103.178c-.63 1.075-1.118 2.13-1.466 3.166l-.033.098c.862.272 1.77.431 2.722.478V.856c-.382.03-.756.09-1.12.176zm4.344.291l.176.34c.45.884.815 1.755 1.092 2.611.587-.222 1.153-.501 1.697-.835-.788-.935-1.806-1.668-2.965-2.116zm-5.522.098l-.078.034c-1.022.451-1.921 1.129-2.634 1.97.485.3.986.555 1.505.766.3-.912.703-1.836 1.207-2.77z"/>
    </defs>
    <g fill="none" fill-rule="evenodd" transform="translate(1.667 1.667)">
        <mask id="prefix__b" fill="#fff">
            <use xlink:href="#prefix__a"/>
        </mask>
        <use fill="#2D2D70" fill-rule="nonzero" xlink:href="#prefix__a"/>
        <g fill="#263D43" mask="url(#prefix__b)">
            <path d="M0 0H20V20H0z" transform="translate(-1.667 -1.667)"/>
        </g>
    </g>
</svg>
