<svg xmlns="http://www.w3.org/2000/svg" width="15" height="15" viewBox="0 0 15 15">
    <g fill="none" stroke="#263D43">
        <path fill="#263D43" stroke-width=".5" d="M3.634 3.903c.523-.19 1.002-.197 1.437-.007.445.194.838.587 1.19 1.165h0l2.783 7.537-3.35 1.6-1.84-4.395.631 1.233 3.388-1.562-1.214-2.37-3.3 1.52-.833-1.988c-.141-.666-.152-1.208-.02-1.64l.057-.157c.184-.445.548-.745 1.071-.936z"/>
        <path stroke-linejoin="round" stroke-width="1.875" d="M3.3 4.875L3.3 1.097" transform="rotate(-20 3.3 2.986)"/>
        <path stroke-width=".5" d="M12.618 1.627c-.276-.068-.558-.028-.796.097-.245.13-.439.35-.57.712l-.785 2.155 2.12.77.82-2.253c.107-.296.083-.607-.057-.874-.14-.264-.39-.482-.732-.607z"/>
        <path fill="#263D43" stroke-width=".5" d="M10.112 8.514c-.256-.125-.446-.337-.548-.586-.105-.256-.111-.55.02-.912l.785-2.155 2.119.772-.82 2.254c-.108.295-.327.518-.606.633-.276.112-.609.118-.95-.006z"/>
    </g>
</svg>
