<svg xmlns="http://www.w3.org/2000/svg" width="28" height="130" viewBox="0 0 29 120">
    <g fill="none" fill-rule="evenodd">
        <path fill="#C2FEF6" d="M3 0v9.999L14.5 10C23.06 10 30 16.94 30 25.5 30 34.06 23.06 41 14.5 41L3 40.999V102H0V0h3z"/>
        <path fill="#263D43" fill-rule="nonzero" d="M6.667 19.012c.455.079.79.467.804.928l.25 8.717.32.033c.47.05.903.102 1.296.155l-.599-.933-.013-.022c-.222-.372-.1-.853.272-1.074.395-.236.896-.182 1.232.125l.035.034 2.147 2.158c.461.463.55 1.16.26 1.714-.021.208-.092.414-.213.599l-.038.055-.212.29c-.683.938-1.83 1.415-2.973 1.242l-.07-.011-1.406-.246c-.25-.043-.476-.162-.651-.337-.677-.225-1.436-.894-2.277-2.004-.524-.691-.735-1.57-.582-2.423l1.497-8.355c.078-.432.49-.72.921-.645zm15.442.565l.01.04.008.04 1.498 8.355c.153.853-.058 1.732-.582 2.423-.842 1.11-1.6 1.779-2.277 2.005-.176.174-.402.293-.651.336l-1.406.246c-1.166.203-2.346-.274-3.043-1.23l-.212-.291c-.134-.184-.214-.39-.245-.6-.315-.561-.231-1.28.24-1.755l2.16-2.17c.336-.338.859-.404 1.268-.16.369.22.49.697.27 1.066l-.017.027-.614.94c.393-.054.824-.106 1.295-.157l.343-.035.249-8.717c.013-.461.35-.85.804-.928.405-.07.791.178.902.565zm-.769.224l-.018.004c-.06.019-.106.07-.117.133l-.002.024-.27 9.418-.86.09-.314.033c-.308.034-.598.068-.87.103l-.265.035-1.734.235 1.556-2.384-.003-.002c-.081-.036-.177-.024-.246.032l-.02.018-2.16 2.17c-.203.204-.251.511-.13.763l.02.036.072.13.022.147c.01.072.035.142.075.206l.025.038.211.29c.505.693 1.351 1.047 2.196.924l.063-.01 1.406-.246c.073-.012.141-.044.197-.091l.027-.025.133-.132.178-.06c.491-.163 1.14-.734 1.894-1.728.375-.495.534-1.12.443-1.731l-.011-.068L21.34 19.8zm-14.807 0l-1.497 8.352c-.113.633.043 1.286.432 1.799.732.966 1.366 1.533 1.852 1.714l.041.014.178.06.133.132c.052.052.117.09.188.108l.036.008 1.398.244.06.01c.829.125 1.659-.21 2.169-.87l.039-.052.2-.274.027-.04c.04-.061.067-.129.08-.2l.007-.042.016-.152.07-.136c.128-.243.092-.542-.09-.749l-.028-.03-2.133-2.144-.022-.021c-.07-.065-.173-.08-.26-.041l-.008.004 1.524 2.375-1.715-.232-.263-.034c-.313-.04-.651-.08-1.012-.119l-.316-.032-.699-.072-.269-9.419c-.002-.073-.05-.136-.12-.157l-.018-.004zm7.292 1.027l.07.091.023-.03c1.293-1.695 2.626-2.019 3.823-.795 1.338 1.368.05 3.484-3.563 6.382-.062.05-.137.08-.216.086l-.034.002h-.066c-.091 0-.18-.032-.25-.088l-.215-.173c-3.448-2.81-4.66-4.868-3.348-6.209 1.183-1.21 2.498-.907 3.776.734zm.436.957c-.08.12-.213.182-.347.178l-.02-.001h-.018c-.124.005-.247-.048-.327-.15l-.02-.027-.091-.134c-1.104-1.596-1.975-1.859-2.817-.997-.793.81.156 2.45 3.114 4.89l.16.132.07-.057c2.998-2.456 3.984-4.113 3.228-4.94l-.024-.025c-.866-.886-1.761-.584-2.908 1.131z"/>
    </g>
</svg>
