<svg xmlns="http://www.w3.org/2000/svg" width="28" height="130" viewBox="0 0 29 120">
    <g fill="none" fill-rule="evenodd">
        <path fill="#96EFB1" d="M3 0v9.999L14.5 10C23.06 10 30 16.94 30 25.5 30 34.06 23.06 41 14.5 41L3 40.999V102H0V0h3z"/>
        <path fill="#263D43" fill-rule="nonzero" d="M18.312 16.15c2.128 2.652 3.288 7.472 3.288 11.472 0 .211-.163.384-.37.4H18.4v7.579c0 .21-.163.383-.37.399H18c-.211 0-.384-.162-.399-.37l-.001-.03V16.4c0-.377.475-.544.712-.25zM14 16c.22 0 .4.18.4.4 0 4.126-1.225 6.386-3.7 6.586v12.56c0 .221-.18.4-.4.4-.211 0-.384-.163-.399-.37l-.001-.03V22.982c-2.435-.234-3.59-2.496-3.495-6.59.006-.22.189-.395.41-.39.22.005.395.188.39.41-.085 3.666.822 5.524 2.694 5.763v-5.719c0-.22.18-.4.4-.4.212 0 .385.163.4.37V22.182c1.926-.205 2.9-2.07 2.9-5.781 0-.221.18-.4.4-.4zm4.4 1.69v9.532h2.396v-.004c-.064-3.203-.882-6.889-2.315-9.39l-.081-.139z"/>
    </g>
</svg>
