<svg xmlns="http://www.w3.org/2000/svg" width="28" height="130" viewBox="0 0 29 120">
    <g fill="none" fill-rule="evenodd">
        <path fill="#FDB9B9" d="M3 0v9.999L14.5 10C23.06 10 30 16.94 30 25.5 30 34.06 23.06 41 14.5 41L3 40.999V102H0V0h3z"/>
        <path fill="#263D43" fill-rule="nonzero" d="M15.354 16.4c1.197 0 2.167.97 2.167 2.167v3.986H21.5c1.361 0 2.468 1.088 2.5 2.442v2.943c0 1.361-1.088 2.468-2.441 2.5h-4.038v3.026c0 1.197-.97 2.167-2.167 2.167h-2.708c-1.197 0-2.167-.97-2.167-2.167l-.001-3.026H6.5c-1.361 0-2.468-1.087-2.5-2.44v-2.944c0-1.361 1.088-2.468 2.441-2.5H6.5l3.978-.001v-3.986c0-1.197.971-2.167 2.168-2.167h2.708zm.046.77h-2.754c-.757 0-1.373.6-1.397 1.35v14.944c0 .756.6 1.372 1.35 1.397H15.355c.757 0 1.373-.6 1.397-1.35V18.566c0-.757-.6-1.373-1.35-1.397zm2.121 12.499H21.5c.939 0 1.703-.747 1.73-1.68v-2.935c0-.939-.747-1.703-1.679-1.73l-4.03-.001v6.346zm-7.043 0v-6.346H6.5c-.939 0-1.703.748-1.73 1.68v2.935c0 .94.747 1.703 1.679 1.73l.051.001h3.978zm4.876-.856c.213 0 .385.173.385.385 0 .203-.157.369-.356.384h-2.737c-.213 0-.385-.172-.385-.384 0-.203.157-.369.356-.384h2.737zm3.792-1.33c.225 0 .407.182.407.407 0 .224-.182.406-.407.406-.224 0-.406-.182-.406-.406 0-.225.182-.407.406-.407zm-11.917 0c.224 0 .406.182.406.407 0 .224-.182.406-.406.406-.225 0-.407-.182-.407-.406 0-.225.182-.407.407-.407zm13.949-1.49c.224 0 .406.183.406.407 0 .224-.182.406-.406.406-.225 0-.407-.182-.407-.406 0-.224.182-.406.407-.406zm-12.324 0c.224 0 .406.183.406.407 0 .224-.182.406-.406.406-.225 0-.407-.182-.407-.406 0-.224.182-.406.407-.406zm10.292-1.354c.225 0 .407.182.407.407 0 .224-.182.406-.407.406-.224 0-.406-.182-.406-.406 0-.225.182-.407.406-.407zm-11.917 0c.224 0 .406.182.406.407 0 .224-.182.406-.406.406-.225 0-.407-.182-.407-.406 0-.225.182-.407.407-.407zm8.125-1.92c.213 0 .385.172.385.385 0 .202-.157.369-.356.383l-.029.001h-2.708c-.213 0-.385-.172-.385-.384 0-.203.157-.37.356-.384h2.737z"/>
    </g>
</svg>
