<svg xmlns="http://www.w3.org/2000/svg"  width="28" height="130" viewBox="0 0 29 120">
    <g fill="none" fill-rule="evenodd">
        <path fill="#CEADFD" d="M3 0v9.999L14.5 10C23.06 10 30 16.94 30 25.5 30 34.06 23.06 41 14.5 41L3 40.999V102H0V0h3z"/>
        <path fill="#263D43" fill-rule="nonzero" d="M16.788 17.8c.792 0 1.435.642 1.435 1.435l-.001.645h3.538c1.016 0 1.84.824 1.84 1.84v10.462c0 1.016-.824 1.84-1.84 1.84H6.24c-1.016 0-1.84-.824-1.84-1.84V21.72c0-1.016.824-1.84 1.84-1.84h3.249v-.645c0-.746.57-1.359 1.297-1.428l.138-.007zm4.972 2.88H6.24c-.56 0-1.016.442-1.04.996v.044l-.001 4.861 7.294-.03v-.028c0-.793.644-1.437 1.437-1.437.794 0 1.438.644 1.438 1.437v.92c0 .794-.644 1.437-1.438 1.437-.793 0-1.437-.643-1.437-1.437v-.092l-7.294.03.001 4.801c0 .56.442 1.016.996 1.039H21.76c.56 0 1.016-.441 1.04-.995l-.001-4.849-7.41.033-.004-.8 7.414-.034.001-4.856c0-.56-.442-1.016-.996-1.039h-.044zm-7.83 5.206c-.34 0-.617.266-.636.601V27.443c0 .352.285.637.636.637.34 0 .618-.266.637-.6V26.522c0-.352-.285-.637-.637-.637zm2.858-7.286h-5.864c-.35 0-.634.284-.634.635v.45h7.133v-.45c0-.339-.265-.615-.6-.634l-.035-.001z"/>
    </g>
</svg>
