<svg xmlns="http://www.w3.org/2000/svg" width="49" height="49" viewBox="0 0 49 49">
    <g fill="none" fill-rule="evenodd">
        <circle cx="24.5" cy="24.5" r="19.5" fill="#FFF"/>
        <path fill="#263D43" fill-rule="nonzero" d="M18.95 23.252c1.486 2.92 3.879 5.302 6.798 6.798l2.27-2.27c.278-.278.69-.371 1.052-.247 1.155.381 2.403.588 3.683.588.567 0 1.031.464 1.031 1.031v3.6c0 .568-.464 1.032-1.031 1.032-9.687 0-17.537-7.85-17.537-17.537 0-.567.464-1.031 1.031-1.031h3.611c.567 0 1.032.464 1.032 1.031 0 1.29.206 2.528.588 3.683.113.361.03.764-.258 1.052l-2.27 2.27z"/>
    </g>
</svg>
