<svg xmlns="http://www.w3.org/2000/svg" width="49" height="49" viewBox="0 0 49 49">
    <g fill="none" fill-rule="evenodd">
        <circle cx="24.5" cy="24.5" r="19.5" fill="#FFF"/>
        <path fill="#263D43" fill-rule="nonzero" d="M30.69 28.709c-.785 0-1.486.31-2.022.794l-7.356-4.28c.052-.238.093-.475.093-.723s-.041-.485-.093-.722l7.273-4.24c.557.516 1.29.836 2.104.836 1.713 0 3.095-1.383 3.095-3.095 0-1.712-1.382-3.095-3.095-3.095-1.712 0-3.094 1.383-3.094 3.095 0 .248.041.485.093.722l-7.273 4.24c-.557-.516-1.29-.836-2.104-.836-1.713 0-3.095 1.383-3.095 3.095 0 1.712 1.382 3.095 3.095 3.095.815 0 1.547-.32 2.104-.836l7.345 4.291c-.052.217-.083.444-.083.671 0 1.66 1.352 3.012 3.012 3.012 1.661 0 3.013-1.351 3.013-3.012 0-1.66-1.352-3.012-3.013-3.012z"/>
    </g>
</svg>
