<svg xmlns="http://www.w3.org/2000/svg" width="50" height="50" viewBox="0 0 50 50">
    <g fill="none" fill-rule="evenodd">
        <circle cx="25" cy="25" r="19.898" fill="#DBF3F9"/>
        <path fill="#263D43" fill-rule="nonzero" d="M34.978 14.618c.263-.109.557-.05.77.15.213.2.31.513.251.813-.764 3.985-2.801 15.072-3.64 19.452-.08.411-.343.75-.7.901-.358.15-.759.09-1.07-.155-1.958-1.548-5.41-4.357-5.41-4.357l-2.99 3.135c-.208.218-.506.303-.784.222-.28-.081-.491-.317-.583-.618-.732-2.391-2.135-7.095-2.135-7.095s-3.002-1.056-5.289-1.816c-.331-.11-.561-.44-.573-.82-.01-.378.2-.723.524-.856 5.1-2.095 17.577-7.292 21.629-8.956zm-3.535 3.707L19.95 26.472l1.623 5.94.36-3.762.021-.02 9.82-9.832c.105-.105.12-.281.033-.405-.086-.123-.245-.152-.364-.068z"/>
    </g>
</svg>
