<svg xmlns="http://www.w3.org/2000/svg" width="50" height="50" viewBox="0 0 50 50">
    <g fill="none" fill-rule="evenodd">
        <circle cx="25" cy="25" r="19.898" fill="#DBF3F9"/>
        <path fill="#263D43" fill-rule="nonzero" d="M25.049 13.404c3.088.001 5.987 1.199 8.168 3.37 2.18 2.173 3.38 5.06 3.379 8.131-.003 6.336-5.183 11.491-11.547 11.491-1.933 0-3.837-.483-5.523-1.399l-6.122 1.599 1.638-5.956c-1.01-1.743-1.541-3.719-1.54-5.745.002-6.335 5.182-11.49 11.547-11.49zm-4.04 5.798c-.193 0-.505.072-.77.36-.263.288-1.01.981-1.01 2.395 0 1.347.939 2.65 1.152 2.935l.027.036c.144.19 2.034 3.092 4.928 4.335.688.296 1.226.473 1.645.605.69.219 1.32.188 1.817.114.555-.082 1.707-.695 1.948-1.365.24-.672.24-1.247.168-1.366-.072-.12-.264-.192-.554-.336-.288-.144-1.706-.839-1.972-.934-.264-.096-.456-.144-.65.144-.191.287-.745.934-.913 1.126-.168.19-.337.215-.625.071-.288-.144-1.218-.446-2.32-1.425-.858-.762-1.437-1.702-1.605-1.99-.168-.287-.018-.442.126-.585.13-.129.288-.336.433-.504.147-.166.194-.286.291-.478.096-.192.049-.36-.024-.504-.073-.143-.65-1.556-.89-2.131-.234-.56-.472-.484-.649-.493l-.553-.01z"/>
    </g>
</svg>
