<svg xmlns="http://www.w3.org/2000/svg" width="50" height="50" viewBox="0 0 50 50">
    <defs>
        <filter id="prefix__a" width="114.8%" height="180%" x="-7.4%" y="-40%" filterUnits="objectBoundingBox">
            <feOffset in="SourceAlpha" result="shadowOffsetOuter1"/>
            <feGaussianBlur in="shadowOffsetOuter1" result="shadowBlurOuter1" stdDeviation="5"/>
            <feColorMatrix in="shadowBlurOuter1" result="shadowMatrixOuter1" values="0 0 0 0 0.258823529 0 0 0 0 0.294117647 0 0 0 0 0.352941176 0 0 0 0.2 0"/>
            <feMerge>
                <feMergeNode in="shadowMatrixOuter1"/>
                <feMergeNode in="SourceGraphic"/>
            </feMerge>
        </filter>
    </defs>
    <g fill="none" fill-rule="evenodd" filter="url(#prefix__a)" transform="translate(-55)">
        <g transform="translate(55)">
            <circle cx="25" cy="25" r="19.898" fill="#DBF3F9"/>
            <path fill="#263D43" fill-rule="nonzero" d="M25.043 14.796c2.718 0 5.269 1.054 7.188 2.966 1.918 1.911 2.974 4.452 2.973 7.155-.002 5.575-4.56 10.112-10.161 10.112-1.7 0-3.376-.425-4.86-1.231l-5.387 1.406 1.441-5.24c-.89-1.535-1.356-3.274-1.356-5.057.003-5.575 4.561-10.111 10.162-10.111zm-3.555 5.102c-.17 0-.445.063-.677.316-.233.254-.889.864-.889 2.108 0 1.244.91 2.446 1.037 2.614.127.169 1.79 2.721 4.337 3.816.605.26 1.079.416 1.447.532.608.192 1.162.165 1.6.1.487-.072 1.501-.611 1.713-1.201.212-.591.212-1.097.148-1.203-.063-.105-.232-.168-.487-.295-.254-.126-1.502-.738-1.735-.822-.233-.084-.402-.127-.572.127-.169.252-.656.822-.804.99-.148.169-.296.19-.55.063-.254-.126-1.072-.392-2.042-1.254-.754-.67-1.264-1.497-1.412-1.75-.148-.253-.016-.39.11-.516.115-.113.255-.295.382-.443.129-.146.17-.252.256-.421.085-.168.043-.316-.021-.443-.064-.126-.572-1.37-.783-1.876-.207-.492-.416-.426-.571-.434l-.487-.008z"/>
        </g>
    </g>
</svg>
