<svg xmlns="http://www.w3.org/2000/svg" width="50" height="50" viewBox="0 0 50 50">
    <g fill="none" fill-rule="evenodd">
        <circle cx="25" cy="25" r="19.898" fill="#FFF"/>
        <path fill="#263D43" fill-rule="nonzero" d="M26.063 26.063v5.789c0 .325-.26.588-.581.588h-.964c-.32 0-.58-.257-.58-.588v-5.79h-5.79c-.325 0-.588-.26-.588-.58v-.964c0-.32.257-.58.588-.58h5.79v-5.79c0-.325.26-.588.58-.588h.964c.32 0 .58.257.58.588v5.79h5.79c.325 0 .588.26.588.58v.964c0 .32-.257.58-.588.58h-5.79z"/>
    </g>
</svg>
