<svg xmlns="http://www.w3.org/2000/svg" width="49" height="49" viewBox="0 0 49 49">
    <g fill="none" fill-rule="evenodd">
        <circle cx="24.5" cy="24.5" r="19.5" fill="#FFF"/>
        <path fill="#263D43" fill-rule="nonzero" d="M31.313 19.533l-1.96 15.283h-9.804l-1.96-15.283h13.724zm-3.724 1.584c-.54-.021-.997.386-1.02.91l-1.1 10.472c-.022.524.399.967.94.988.54.022.997-.385 1.02-.91l1.1-10.472c.022-.524-.399-.966-.94-.988zm-6.18 0c-.54.022-.96.464-.939.988l1.1 10.473c.022.524.48.93 1.02.91.541-.022.961-.465.94-.989l-1.1-10.472c-.023-.524-.48-.931-1.02-.91zm2.97-6.933c1.624 0 2.94 1.276 2.94 2.849h4.402l-.266 1.675H17.567l-.288-1.675h4.159c0-1.573 1.316-2.849 2.94-2.849z"/>
    </g>
</svg>
