<svg xmlns="http://www.w3.org/2000/svg" width="185" height="118" viewBox="0 0 185 118">
    <g fill="none" fill-rule="evenodd">
        <g>
            <path fill="#25C3E8" d="M54.057 68.72s-9.113 2.221-15.505.854c-2.024-.433-5.612-2.232-8.551-4.229-2.762-1.875-4.933-3.948-5.226-4.527-.587-1.162-.26-2.393-.346-2.777-.254-1.133-1.382-1.922-2.116-3.204-.632-1.103-5.745-1.103-6.824-1.196-.993-.085-5.83-3.417-7.947-4.87-3.394-2.329-3.8-4.484-4.578-5.382-.777-.897-2.462-2.562-2.807-4.656-.211-1.282-.405-3.701 1.685-5.767.388-.384-.285-.607-.173-1.75.046-.475 2.16-5.554 4.275-8.33 2.226-2.92 4.64-5.636 7.429-7.476.648-.427.993-1.41 2.375-2.648.75-.672 2.469-1.408 2.872-1.901 2.203-2.691 6.5-2.734 7.148-3.182 1.49-1.032 3.952-3.14 5.96-4.1 1.625-.778 5.844-1.266 7.817-2.094 1.426-.598 3.626-.414 5.572-.492 1.62-.064 4.012-.96 5.96-.96 3.11 0 4.195.438 5.247.512.907.064 4.232-.462 6.543-.064 1.49.256 2.657 1.281 4.47 1.281 1.814 0 3.304-.256 5.248 0 1.943.257 6.972 2.958 9.134 3.524 2.203.577 6.031 1.68 8.228 3.076 1.814 1.153 5.377 5.703 6.349 7.112 1.34 1.944 4.534 4.165 6.09 6.6.997 1.562 1.619 3.972 2.072 4.741.879 1.49 2.073 2.179 2.85 3.973.778 1.794 1.124 2.548 1.944 4.229.907 1.858 2.85 3.332 3.11 6.92.259 3.588.337 5.283.13 8.458-.13 1.986 1.166 5.894 0 8.714-1.552 3.75-5.701 9.098-8.422 10.38-2.721 1.281-4.535 1.281-5.572 1.666 0 0-.648 2.947-1.62 4.293-.71.983-.669 2.2-2.267 3.524-.954.79-3.687 2.994-7.644 3.801-3.557.726-13.82.214-15.16-.598 0 0 1.944 6.493 1.857 7.732-.095 1.377-.69 1.452-1.986 1.495-1.194.04-2.462 0-3.8-1.452-.705-.764-2.463-4.785-3.5-6.835-1.036-2.05-2.98-5.852-4.361-7.475-1.652-1.941-5.96-6.92-5.96-6.92" transform="translate(13.214 13.184) matrix(-1 0 0 1 136.107 0)"/>
            <path stroke="#DBF3F9" stroke-linecap="round" stroke-linejoin="round" stroke-width=".987" d="M54.057 68.72s-9.113 2.221-15.505.854c-2.024-.433-5.612-2.232-8.551-4.229-2.762-1.875-4.933-3.948-5.226-4.527-.587-1.162-.26-2.393-.346-2.777-.254-1.133-1.382-1.922-2.116-3.204-.632-1.103-5.745-1.103-6.824-1.196-.993-.085-5.83-3.417-7.947-4.87-3.394-2.329-3.8-4.484-4.578-5.382-.777-.897-2.462-2.562-2.807-4.656-.211-1.282-.405-3.701 1.685-5.767.388-.384-.285-.607-.173-1.75.046-.475 2.16-5.554 4.275-8.33 2.226-2.92 4.64-5.636 7.429-7.476.648-.427.993-1.41 2.375-2.648.75-.672 2.469-1.408 2.872-1.901 2.203-2.691 6.5-2.734 7.148-3.182 1.49-1.032 3.952-3.14 5.96-4.1 1.625-.778 5.844-1.266 7.817-2.094 1.426-.598 3.626-.414 5.572-.492 1.62-.064 4.012-.96 5.96-.96 3.11 0 4.195.438 5.247.512.907.064 4.232-.462 6.543-.064 1.49.256 2.657 1.281 4.47 1.281 1.814 0 3.304-.256 5.248 0 1.943.257 6.972 2.958 9.134 3.524 2.203.577 6.031 1.68 8.228 3.076 1.814 1.153 5.377 5.703 6.349 7.112 1.34 1.944 4.534 4.165 6.09 6.6.997 1.562 1.619 3.972 2.072 4.741.879 1.49 2.073 2.179 2.85 3.973.778 1.794 1.124 2.548 1.944 4.229.907 1.858 2.85 3.332 3.11 6.92.259 3.588.337 5.283.13 8.458-.13 1.986 1.166 5.894 0 8.714-1.552 3.75-5.701 9.098-8.422 10.38-2.721 1.281-4.535 1.281-5.572 1.666 0 0-.648 2.947-1.62 4.293-.71.983-.669 2.2-2.267 3.524-.954.79-3.687 2.994-7.644 3.801-3.557.726-13.82.214-15.16-.598 0 0 1.944 6.493 1.857 7.732-.095 1.377-.69 1.452-1.986 1.495-1.194.04-2.462 0-3.8-1.452-.705-.764-2.463-4.785-3.5-6.835-1.036-2.05-2.98-5.852-4.361-7.475-1.652-1.941-5.96-6.92-5.96-6.92z" transform="translate(13.214 13.184) matrix(-1 0 0 1 136.107 0)"/>
            <path fill="#DBF3F9" d="M25.206 23.996c.92-2.774-.69-5.04-1.166-5.809-.696-1.126-.95-2.649-.302-3.418.648-.769-.475 1.496.69 2.777 1.167 1.282 3.068 1.837 3.716 4.015 0 0 .388-.256 2.59-1.794 2.204-1.538 2.98-1.708 3.37-4.784.388-3.075.86-5.136 1.814-6.237.259-.298-.953 1.378-1.124 3.803-.13 1.836-.071 4.018-.075 4.559-.01 1.442 2.84.395 3.92.843.45.187 1.134.809 1.662.877 2.614.33 1.295-2.417 1.36-4.23.017-.466.669-1.656.529-2.111-.31-1.006-1.459-1.41-2.334-1.8-.29-.129-.786-.275-1.02-.75.278.261.71.333.965.457.61.298 1.242.527 1.907.682.868.201 1.836.306 2.673-.068.442-.197.975-.537 1.292-.903.276-.318.543-.706.717-1.088.596-1.302-.07-2.562-1.302-3.172-1.49-.74-3.322-.633-4.93-.469-2.249.227-4.985 1.243-7.248 1.68 1.18-.261 2.5-1.166 2.943-2.56.063-.198.043 1.153.67 1.197.826.056 2.504-.504 3.217-.641 1.225-.236 2.6-.285 3.843-.405 1.355-.132 2.758.28 3.996-.364.562-.294 1.716-1.296 1.684-1.966-.036-.743-.67-1.274-1.3-1.729.035-.009.07-.043.107-.043 1.155.64 2.086 1.671 1.611 2.973-.26.718-.786 1.285-1.113 1.965-.345.722-.2 1.398.048 2.127.129-.192 1.014-.361 1.338-.233-.648.107-1.88 1.378-3.088 2.48-1.9 1.73-2.42 2.501-3.076 4.07-1.099 2.633-1.267 5.595-1.005 8.403.305 3.282.715 8.86.605 8.415-.1-.402-.503-.29-.951-.363-.195-.033.945-.776.562-2.862-.174-.94-1.617-3.911-2.786-5.34-1.425-1.74-.432-3.544-2.44-3.737-1.232-.118-3.699-.444-5.852 1.26-2.105 1.666-5.68 5.19-5.755 6.92-.066 1.51 1.933 1.708 2.71 3.502.778 1.794.734 3.696.734 3.696s-.604-3.268-1.77-4.037c-1.166-.768-2.053-1.794-2.247-2.37-.13-.385-2.893 1.548-7.169 1.942-.16.016 5.917-2.755 6.78-5.36M53.625 20.494c-.016-2.031-.642-6.67-.13-7.945 1.252-3.12 3.412-4.101 3.93-6.067.39-1.474-1.3-4.674-2.168-6.18.65.106 1.12.21 1.586.243.907.064 4.231-.461 6.543-.064 1.006.173 1.865.697 2.877 1.019-1.758.312-4.121.91-4.95 1.95-1.296 1.622 5.408.586 4.448.811-2.548.599-3.886 1.068-4.837 2.393-.673.937-1.174 2.928-1.986 3.416-1.21.727-3.11 1.88-3.585 2.52-1.558 2.1-1.296 3.378-1.296 7.818 0 1.41.036 2.467.735 3.844.085.17-.454-.564-1.124-.81-.377-.14-.711.344-.82.298-.342-.145.796-1.018.777-3.246" transform="translate(13.214 13.184) matrix(-1 0 0 1 136.107 0)"/>
            <path fill="#DBF3F9" d="M70.858 8.789c.215.128 2.494-1.146 5.009-1.196 2.16-.042 4.184.94 3.542.94-.433 0-2.208-.582-3.283-.47-1.64.17-5.485 1.366-6.22 2.307-2.035 2.605-4.059 5.595-4.62 7.219-.488 1.412.302 6.193.302 7.346 0 1.803-.346 4.187-.777 5.981-.432 1.794 1.246 2.795 3.11 2.093 1.813-.683.77-2.712 2.16-4.314 2.59-2.99 7.385.257 11.444-1.453 1.354-.569-7.904 6.664-7.04 8.373.864 1.708 3.93 3.076 2.462 2.99-.825-.049-4.16-1.6-5.917-2.605-.82-.47-1.684 0-2.16-.3-.83-.523-.777-1.324-2.504-1.837-2.57-.762-8.978 2.55-12.18 3.118-.802.143-2.595 1.234-3.54 2.307-1.044 1.182-1.206 2.67-1.296 2.222-.174-.855-.174-1.624-1.555-2.05-.867-.268-2.578-.564-4.579-.556-2.578.01-6.521.64-9.242 1.665-2.519.95-7.86 6.366-9.847 9.441-1.104 1.708-1.192 3.78-1.06 5.206-.081-.122-.16-.248-.236-.378-.632-1.105-5.745-1.104-6.824-1.196-.992-.086-5.83-3.418-7.946-4.87-3.395-2.33-3.8-4.485-4.578-5.382-.373-.43-.955-1.038-1.498-1.785-.177-1.111-.217-2.018-.23-2.573-.021-.94.21-3.737.518-1.794.475 3 1.76 2.716 2.127 3.93.853 2.82 3.7 1.944 3.402 1.281-.39-.865-1.49-2.477-1.555-4.655-.065-2.179 1.041-3.746 1.77-4.443 1.34-1.282 4.406-2.136 4.406-2.136.319.315-1.814.94-3.196 2.008C7.702 34.4 7.22 35.61 7.445 37.42c.314 2.509 1.954 4.544 3.984 4.43 3.845-.212 4.465-5.891 4.319-6.876-.26-1.751-2.124-3.075-2.44-3.93-.615-1.666-1.263-4.293-1.846-4.741-.227-.175.518.096.68.48.346.82 1.241 3.326 1.36 3.717.195.64 1.843 2.463 2.592 3.203.291.289.518.801.486 1.09-.074.66-.595 2.614-.68 4.132-.047.824-.885 4.592 2.59 6.664 1.962 1.169 3.953.833 6.026.384.99-.214 5.377-2.861 5.7-3.566.325-.705-1.993-1.731-2.85-2.97-1.08-1.559-3.067-3.886-4.622-4.334-1.554-.449-3.67-2.329-2.893-1.752.778.577 2.073.962 2.916 1.025 1.144.086 2.073 1.025 3.433 2.114 1.36 1.09 3.887 2.115 5.83 2.05 1.944-.063 1.598-2.264 1.339-4.506-.26-2.243.928-5.581 1.123-6.45.432-1.922-1.209-5.895-.971-5.702.717.58 2.267 5.382 2.397 6.727.13 1.346.53 9.82 1.468 10.038.734.172 4.33-.384 6.09-.426 1.77-.043 5.165.244 6.176-.129 2.893-1.067 2.962-2.727 2.763-3.886-.237-1.39-2.634-3.867-.755-2.906 1.879.962 3.914 2.628 7.19 1.496 2.722-.94 3.37-2.905 4.277-6.43.399-1.551-.519-5.958-.195-8.777.324-2.82 3.822-5.19 5.248-7.433 1.425-2.243.518-3.204.518-5.318 0-1.347 1.192-2.563 2.269-3.187.673-.012 1.37.01 2.136.111 1.944.257 6.972 2.958 9.135 3.524.572.15 1.255.336 1.991.553-.733-.17-1.406-.335-1.884-.467-3.578-.984-3.195-1.922-7.256-1.367-1.795.246-4.898 4.389-4.231 4.784" transform="translate(13.214 13.184) matrix(-1 0 0 1 136.107 0)"/>
            <path fill="#DBF3F9" d="M61.355 50.224c-2.113.117-5.668 1.388-8.173 1.644-2.504.257-4.783-.448-6.597.235-1.814.684-1.9 1.71-2.073 2.563-.173.855-1.137-.383-1.252-.896-.044-.193-6.319.62-7.342 1.196-1.426.8-1.555 2.905-2.42 4.783-.642 1.401.061 4.847 2.074 5.469 2.307.713 1.719 2.734 3.876 4.432-.127-.023-.254-.049-.378-.075-2.024-.434-5.612-2.233-8.551-4.23-2.762-1.875-4.933-3.948-5.226-4.528-.251-.496-.334-1.006-.355-1.456.128-.41.318-.86.571-1.363.173-.341.95 2.648 1.9 3.503.566.508 3.413 2.007 3.585-.47.172-2.477 1.15-3.295 2.937-5.382.65-.762-.044-3.46-4.923-4.828-.507-.14 4.275.599 5.442 1.026 3.33 1.22 9.9.865 11.023-1.1 1.123-1.965-.408-3.88.13-4.838.085-.15.024.96.518 2.019.447.958 2.126 1.818 2.656 2.018 2.883 1.09 6.964.619 8.95-.577 1.988-1.195 3.11-2.648 4.147-5.126 1.036-2.477 2.798-4.586 4.233-4.783.388-.054-1.264.266-2.268 2.156-.795 1.499-2.494 4.357-1.263 5.831.658.788 1.803 1.41 4.395 1.496 2.591.084 8.205.769 8.983-.599.777-1.367-2.605-2.836-3.541-3.418-.638-.394 3.633.363 5.322 2.2.972 1.058 3.46.608 5.928-.704 2.591-1.378 3.984-2.467 5.41-4.421 1.856-2.546 6.834-9.803 6.834-9.803 0 .854-2.375 3.208-1.263 3.908.712.449-.217.342-.972 1.025-.57.515-3.66 5.543-5.345 8.074-.773 1.16-3.79 3.363-7.277 4.335-1.897.53-3.078.204-4.027.406-1.098.235-2.751 1.107-4.308 1.09-2.689-.033-5.734-1.122-11.36-.812M96.425 69.232c-.788.44-2.073.417-3.4-.416-1.907-1.196-4.58-.575-6.803-.801-2.654-.27-4.117.155-6.77.545-1.907.279-3.792.646-5.701.897-1.855.243-3.586-.444-5.284-1.172-1.676-.72-3.495-1.66-5.252-.583-1.497.917-3.364 3.204-3.144 5.043.114.95.666 2.036.572 3.026-.035-.045-.071-.089-.108-.131-1.266-1.488-4.093-4.76-5.343-6.208.085-.347-1.25-1.068-.908-1.16 1.652-.45 2.395-1.704 3.433-2.269 2.335-1.274 5.378-1.276 7.932-.816 2.786.502 5.41 1.664 8.278 1.694 2.777.028 5.437-.961 8.208-.956 2.037.002 4.026.555 5.912 1.27 1.335.507 2.497.543 3.9.669.954.084 1.606.259 2.502.6.592.225 1.264-.033 2.62-.585.305-.124-.15 1.08-.644 1.353M105.372 32.337h.001c.005 0 .01 0 .015-.002l-.015.008-.001-.006" transform="translate(13.214 13.184) matrix(-1 0 0 1 136.107 0)"/>
            <path fill="#DBF3F9" d="M106.494 40.218c-1.066 2.006-1.892 4.134-3.228 5.99-1.238 1.718-2.747 3.2-4.196 4.738-1.555 1.648-2.935 3.064-4.76 4.446-2.195 1.662-4.138 2.05-6.743 1.647.913-.433 5.619-1.732 3.453-4.267-.796-.93-1.29-2.42-.944-2.848.307-.378 2.395 2.356 4.406.685 2.16-1.794.395-3.155.868-3.905.34-.538 1.473.711 3.71-.026 2.072-.683 4.578-2.819 4.06-6.493-.433-3.064-2.147-6.074-2.42-7.176-.381-1.546.173-6.852.173-8.116 0-1.88-2.763-7.689-9.03-5.401-3.698 1.352-4.915 5.14-4.44 6.67.332 1.066 1.021 4.126.992 4.685-.043.825-.792.924-.887.981.368-.483.567-.27.625-.954.063-.795-.389-2.008-.864-3.29-.798-2.151-1.339-4.271-4.06-5.168-.973-.322-2.017-1.342-2.98-1.538-.352-.071-3.75-1.054-4.019-.973-.947.289-1.617 1.399-2.243 2.297-.864 1.24-1.955 3.3-2.505 3.844-.26.257 1.828-4.17 4.146-6.75.692-.768.648-6.92 1.555-7.602 0 0-.497 3.674-.519 4.527-.03 1.202.174 2.718.692 3.034 1.122.683 2.365.757 3.498 1.067 1.33.365 2.952 1.425 4.353 1.248 1.348-.17 2.108-1.829 2.325-2.996.376-2.02-.856-3.292-2.061-4.691-1.147-1.333-1.367-2.884.1-4.091.523-.43 2.152-.768 2.366-.405.178.303-2.84 1.265-1.037 2.349.994.598 1.944.342 2.581.733 1.538.943.165 4.71 2.839 3.332 1.158-.597 2.315-1.171 3.479-1.726.448.58.81 1.074 1.035 1.4 1.34 1.943 4.535 4.164 6.09 6.599.997 1.562 1.62 3.972 2.073 4.741.27.456.568.838.877 1.2-1.538 1.127-3.252 2.514-2.95 3.756.496 2.044 3.237 2.123 4.31 3.648 1.064 1.515.033 3.385-.72 4.8" transform="translate(13.214 13.184) matrix(-1 0 0 1 136.107 0)"/>
        </g>
        <g fill="#263D43" fill-rule="nonzero">
            <path d="M6.633 25.071c.859-.062 1.734-.277 2.625-.643.89-.365 1.755-.815 2.593-1.348.838-.533 1.619-1.114 2.342-1.74.723-.628 1.346-1.235 1.87-1.82.168-.167.299-.408.393-.721.095-.314.142-.586.142-.816-.021-.606-.336-1.087-.943-1.443-.608-.355-1.373-.637-2.295-.846-.922-.21-1.933-.366-3.034-.47-1.1-.105-2.148-.21-3.143-.314-.996-.105-1.86-.23-2.593-.377-.734-.146-1.205-.366-1.415-.658v-.032c-.021-.334.089-.643.33-.925.241-.282.576-.549 1.006-.8.43-.25.933-.496 1.509-.737l1.839-.768c.042-.021.178-.063.408-.126.231-.062.493-.136.786-.22.294-.083.587-.161.88-.235l.692-.172c.273-.063.545-.12.817-.173.273-.052.52-.125.74-.22.22-.093.397-.23.534-.407.136-.178.204-.444.204-.8 0-.25-.094-.491-.283-.721-.189-.23-.43-.345-.723-.345-.587.084-1.179.246-1.776.486s-1.19.382-1.776.424c-.524.146-1.106.313-1.745.501-.64.189-1.273.408-1.902.659-.628.25-1.215.544-1.76.878-.545.335-.985.711-1.32 1.13-.105.125-.22.292-.346.501-.126.21-.246.44-.362.69-.115.251-.214.502-.298.753-.084.25-.126.48-.126.69 0 .544.147.993.44 1.349.293.355.885.669 1.776.94.89.272 2.159.528 3.804.769 1.645.24 3.82.517 6.523.831.041.02.178.063.408.125.23.063.398.115.503.157l.063.063c0 .02.021.031.063.031.02 0 .031.01.031.032 0 .209-.152.46-.455.752-.304.293-.66.591-1.07.894-.408.304-.822.58-1.24.832-.42.25-.745.439-.975.564-.42.314-.844.538-1.274.674-.43.136-.859.277-1.288.424-.43.146-.85.334-1.258.564-.408.23-.78.575-1.116 1.035 0 .314.126.58.377.8.252.22.524.33.818.33zm17.132 0c.272 0 .471-.156.597-.47.126-.314.189-.565.189-.753 0-.627-.063-1.244-.189-1.85-.126-.607-.24-1.223-.346-1.85-.104-.733-.172-1.49-.204-2.275-.031-.784-.047-1.542-.047-2.273v-1.004c.063-.063.126-.11.189-.141.062-.032.125-.068.188-.11l5.721-2.133c.23-.104.45-.22.66-.345.21-.125.315-.324.315-.596 0-.376-.11-.705-.33-.988-.22-.282-.54-.423-.959-.423-.608 0-1.205.141-1.792.423-.587.283-1.152.539-1.697.769-.105.042-.278.104-.519.188l-.77.267c-.273.094-.53.188-.77.282-.241.094-.404.151-.488.172-.02-.271-.052-.752-.094-1.442s-.084-1.422-.126-2.196c-.041-.774-.083-1.505-.125-2.195-.042-.69-.063-1.171-.063-1.443-.021-.272-.032-.601-.032-.988s-.042-.753-.125-1.098c-.084-.345-.226-.638-.425-.878-.199-.24-.508-.36-.927-.36-.356 0-.64.062-.849.188-.21.125-.314.397-.314.815 0 1.526.073 3.068.22 4.626.147 1.558.22 3.11.22 4.658v1.38c-.21.167-.487.313-.833.439-.346.125-.686.261-1.022.408-.335.146-.628.318-.88.517-.251.199-.377.455-.377.768 0 .189.037.335.11.44.073.104.162.193.267.266.105.073.21.141.314.204.105.063.2.146.283.25.042 0 .152.006.33.017.179.01.289.015.33.015.315 0 .587-.073.818-.22.23-.146.492-.219.786-.219h.125l.33 3.732c.116 1.297.226 2.489.33 3.576.042.565.242 1.014.598 1.349.356.334.817.501 1.383.501zm11.19.032c.231 0 .41-.052.535-.157.126-.105.273-.24.44-.408v-1.097c0-.711-.052-1.412-.157-2.102-.105-.69-.157-1.39-.157-2.101 0-.774.168-1.548.503-2.321.335-.774.765-1.516 1.289-2.227.524-.71 1.09-1.375 1.697-1.992.608-.616 1.184-1.165 1.73-1.646.125-.042.266-.115.424-.22.157-.104.309-.225.455-.36.147-.136.273-.283.378-.44.104-.156.157-.308.157-.454 0-.419-.184-.748-.55-.988-.367-.24-.729-.361-1.085-.361-.105 0-.188.005-.251.016-.063.01-.12.031-.173.062-.053.032-.11.074-.173.126l-.283.235c-.545.481-1.022.904-1.43 1.27-.409.366-.781.711-1.116 1.035-.336.324-.66.67-.975 1.035-.314.366-.639.79-.974 1.27-.021.022-.058.063-.11.126-.053.063-.1.115-.142.157-.042-.146-.073-.251-.094-.314-.021-.062-.031-.12-.031-.172v-.455c0-.084-.01-.235-.032-.455-.02-.22-.037-.444-.047-.674-.01-.23-.026-.455-.047-.674-.021-.22-.032-.372-.032-.455-.083-.293-.288-.523-.613-.69-.324-.168-.634-.251-.927-.251-.23 0-.471.042-.723.125-.251.084-.377.262-.377.534.084.669.188 1.61.314 2.822.126 1.213.246 2.499.362 3.858.115 1.36.22 2.671.314 3.936.094 1.265.162 2.274.204 3.027.105.313.325.622.66.925.336.303.682.455 1.038.455zm11.066-.157c.461 0 .901-.084 1.32-.25.42-.168.823-.383 1.21-.644.388-.261.76-.56 1.116-.894l1.038-.972c.838-.836 1.55-1.516 2.137-2.039.587-.522 1.08-.946 1.478-1.27.398-.324.712-.575.943-.753.23-.177.409-.35.534-.517.126-.167.215-.356.268-.565.052-.209.1-.502.141-.878 0-.606-.12-1.014-.362-1.223-.24-.21-.518-.309-.833-.298-.314.01-.623.104-.927.282-.304.178-.508.34-.613.486l-1.289 1.976-5.03 4.642c-.167.063-.324.167-.47.314-.148.146-.305.22-.472.22-.021 0-.053-.022-.095-.063-.02-.021-.031-.042-.031-.063 0-.23.016-.528.047-.894s.068-.727.11-1.082c.042-.356.079-.674.11-.957.032-.282.068-.465.11-.549l.126-.25c.063-.042.183-.131.361-.267s.372-.282.582-.44c.21-.156.403-.302.581-.438.179-.136.3-.235.362-.298.02-.021.068-.073.141-.157.074-.084.152-.167.236-.25l.236-.236.141-.141c.042-.021.095-.053.158-.094.062-.042.104-.063.125-.063.21-.167.44-.345.692-.533.251-.188.487-.392.707-.612.22-.22.404-.46.55-.721.147-.262.22-.55.22-.863 0-.25-.115-.554-.345-.91-.231-.355-.514-.695-.85-1.019-.335-.324-.686-.6-1.052-.83-.367-.23-.676-.346-.928-.346-.44 0-.822.094-1.147.283-.325.188-.608.428-.849.72-.24.294-.45.623-.628.989-.179.366-.341.726-.488 1.082-.042.125-.12.35-.235.674-.116.324-.236.67-.362 1.035l-.361 1.05c-.116.335-.194.565-.236.69-.063.126-.168.21-.315.252-.146.042-.298.078-.455.11-.158.031-.294.088-.41.172-.114.084-.172.251-.172.502 0 .272.084.486.252.643.167.157.366.34.597.549-.126.564-.205 1.024-.236 1.38-.031.355-.047.794-.047 1.317 0 .795.21 1.495.629 2.101.419.607 1.079.91 1.98.91zm1.195-9.88c-.063.042-.042-.031.062-.22.105-.187.236-.412.393-.674.158-.26.315-.517.472-.768.157-.25.267-.418.33-.502.126-.188.262-.266.409-.235.146.031.267.11.361.235.094.126.152.272.173.44.021.167-.021.292-.126.376l-2.074 1.348zm12.794 9.88c.46 0 .9-.084 1.32-.25.419-.168.822-.383 1.21-.644s.76-.56 1.116-.894l1.037-.972c.839-.836 1.551-1.516 2.138-2.039.587-.522 1.08-.946 1.477-1.27.399-.324.713-.575.944-.753.23-.177.408-.35.534-.517.126-.167.215-.356.267-.565.053-.209.1-.502.142-.878 0-.606-.12-1.014-.362-1.223-.24-.21-.519-.309-.833-.298-.314.01-.623.104-.927.282-.304.178-.508.34-.613.486l-1.29 1.976-5.029 4.642c-.167.063-.325.167-.471.314-.147.146-.304.22-.472.22-.02 0-.052-.022-.094-.063-.021-.021-.032-.042-.032-.063 0-.23.016-.528.048-.894.031-.366.068-.727.11-1.082.042-.356.078-.674.11-.957.031-.282.068-.465.11-.549l.125-.25c.063-.042.184-.131.362-.267s.372-.282.582-.44c.21-.156.403-.302.581-.438.178-.136.299-.235.362-.298.02-.021.068-.073.141-.157.073-.084.152-.167.236-.25l.236-.236.141-.141c.042-.021.094-.053.157-.094.063-.042.105-.063.126-.063.21-.167.44-.345.691-.533.252-.188.488-.392.708-.612.22-.22.403-.46.55-.721.147-.262.22-.55.22-.863 0-.25-.115-.554-.346-.91-.23-.355-.513-.695-.849-1.019-.335-.324-.686-.6-1.053-.83-.366-.23-.676-.346-.927-.346-.44 0-.823.094-1.147.283-.325.188-.608.428-.85.72-.24.294-.45.623-.628.989s-.34.726-.487 1.082c-.042.125-.12.35-.236.674-.115.324-.236.67-.361 1.035l-.362 1.05-.236.69c-.062.126-.167.21-.314.252-.147.042-.299.078-.456.11-.157.031-.293.088-.408.172-.116.084-.173.251-.173.502 0 .272.084.486.251.643.168.157.367.34.597.549-.125.564-.204 1.024-.235 1.38-.032.355-.047.794-.047 1.317 0 .795.21 1.495.628 2.101.42.607 1.08.91 1.98.91zm1.194-9.88c-.063.042-.042-.031.063-.22.105-.187.236-.412.393-.674.157-.26.314-.517.471-.768.158-.25.268-.418.33-.502.126-.188.263-.266.41-.235.146.031.266.11.36.235.095.126.153.272.174.44.02.167-.021.292-.126.376l-2.075 1.348zm15.623 10.005c.273 0 .472-.156.598-.47.125-.314.188-.565.188-.753 0-.627-.063-1.244-.188-1.85-.126-.607-.241-1.223-.346-1.85-.105-.733-.173-1.49-.204-2.275-.032-.784-.048-1.542-.048-2.273v-1.004c.063-.063.126-.11.189-.141.063-.032.126-.068.189-.11l5.72-2.133c.231-.104.451-.22.661-.345.21-.125.314-.324.314-.596 0-.376-.11-.705-.33-.988-.22-.282-.54-.423-.959-.423-.607 0-1.205.141-1.791.423-.587.283-1.153.539-1.698.769-.105.042-.278.104-.519.188l-.77.267c-.272.094-.529.188-.77.282-.24.094-.403.151-.487.172-.021-.271-.052-.752-.094-1.442s-.084-1.422-.126-2.196c-.042-.774-.084-1.505-.126-2.195-.042-.69-.063-1.171-.063-1.443-.02-.272-.031-.601-.031-.988s-.042-.753-.126-1.098c-.084-.345-.225-.638-.424-.878-.2-.24-.508-.36-.928-.36-.356 0-.639.062-.848.188-.21.125-.315.397-.315.815 0 1.526.074 3.068.22 4.626.147 1.558.22 3.11.22 4.658v1.38c-.21.167-.487.313-.833.439-.345.125-.686.261-1.021.408-.336.146-.629.318-.88.517-.252.199-.378.455-.378.768 0 .189.037.335.11.44.074.104.163.193.268.266.104.073.21.141.314.204.105.063.199.146.283.25.042 0 .152.006.33.017.178.01.288.015.33.015.314 0 .587-.073.817-.22.23-.146.493-.219.786-.219h.126l.33 3.732c.115 1.297.225 2.489.33 3.576.042.565.241 1.014.597 1.349.357.334.818.501 1.383.501zM91.865 35.619c.86-.063 1.734-.277 2.625-.643.89-.366 1.755-.815 2.593-1.349.838-.533 1.62-1.113 2.342-1.74.723-.628 1.347-1.234 1.87-1.82.168-.167.3-.407.393-.72.095-.314.142-.586.142-.816-.021-.607-.335-1.088-.943-1.443-.608-.356-1.373-.638-2.295-.847-.922-.209-1.933-.366-3.033-.47-1.1-.105-2.148-.21-3.144-.314-.995-.105-1.86-.23-2.593-.376-.734-.147-1.205-.366-1.415-.659v-.031c-.02-.335.09-.643.33-.926.241-.282.576-.548 1.006-.8.43-.25.933-.496 1.509-.736l1.839-.769c.042-.02.178-.063.409-.125.23-.063.492-.136.785-.22.294-.083.587-.162.88-.235.294-.073.525-.13.692-.173.273-.062.545-.12.818-.172.272-.052.518-.126.738-.22.22-.094.398-.23.535-.407.136-.178.204-.445.204-.8 0-.251-.094-.491-.283-.721-.189-.23-.43-.345-.723-.345-.587.083-1.179.245-1.776.486-.597.24-1.19.381-1.776.423-.524.146-1.106.314-1.745.502s-1.273.408-1.902.659c-.628.25-1.215.543-1.76.878-.545.334-.985.71-1.32 1.129-.105.125-.22.293-.346.502-.126.209-.246.439-.362.69-.115.25-.214.501-.298.752-.084.251-.126.481-.126.69 0 .544.147.994.44 1.349.294.355.886.67 1.776.94.89.273 2.159.529 3.804.77 1.645.24 3.82.517 6.523.83.042.021.178.063.408.126.23.063.399.115.503.157l.063.063c0 .02.021.03.063.03.021 0 .032.011.032.032 0 .21-.152.46-.456.753-.304.293-.66.59-1.07.894-.408.303-.822.58-1.24.831-.42.25-.745.44-.975.565-.42.313-.844.538-1.273.674-.43.136-.86.277-1.29.423-.429.147-.848.335-1.257.565-.408.23-.78.575-1.116 1.035 0 .313.126.58.378.8.251.22.524.329.817.329zm14.051 0c.084 0 .19-.01.315-.031.126-.021.251-.058.377-.11s.236-.126.33-.22c.094-.094.152-.204.173-.33l.314-1.944 1.446-5.3.912-2.164c.063.125.105.214.126.266.02.053.031.094.031.126v.298c.021.397.063.93.126 1.6.063.668.12 1.332.173 1.99l.141 1.757c.042.513.063.81.063.894.042.377.094.711.157 1.004.063.293.168.543.315.753.146.209.356.365.628.47.273.105.629.157 1.07.157.146 0 .319-.047.518-.141.199-.094.32-.236.361-.424l.739-2.822c.241-.92.456-1.752.644-2.494.19-.742.351-1.359.488-1.85.136-.492.225-.79.267-.894l.157.25 1.446 7.434c.063.355.299.648.707.878.409.23.77.345 1.085.345.23 0 .456-.11.676-.33.22-.219.33-.444.33-.674 0-.104-.005-.188-.016-.25-.01-.063-.058-.136-.141-.22l-1.73-9.127c.022-.02.032-.047.032-.078 0-.032-.01-.047-.031-.047-.084-.398-.157-.831-.22-1.302-.063-.47-.163-.904-.299-1.302-.136-.397-.346-.726-.629-.988-.283-.26-.686-.392-1.21-.392-.189 0-.361.006-.519.016-.157.01-.309.13-.455.36-.021.064-.063.163-.126.299-.063.136-.126.282-.189.439-.063.157-.126.303-.188.439-.063.136-.105.225-.126.267-.063.167-.157.46-.283.878-.126.418-.262.857-.409 1.317-.146.46-.277.9-.393 1.317-.115.418-.193.7-.235.847h-.126c-.021-.125-.047-.355-.079-.69-.031-.334-.063-.69-.094-1.066-.031-.377-.058-.737-.079-1.082-.02-.345-.031-.58-.031-.706-.021-.376-.037-.721-.047-1.035-.01-.314-.063-.58-.157-.8-.095-.22-.257-.397-.488-.533-.23-.136-.576-.225-1.037-.267-.293-.041-.56.016-.802.173-.24.157-.424.35-.55.58l-2.766 5.175c-.063-.063-.11-.209-.141-.439-.032-.23-.053-.48-.063-.753-.01-.271-.016-.533-.016-.784 0-.25-.01-.428-.031-.533-.021-.25-.027-.512-.016-.784.01-.272-.005-.533-.047-.784s-.126-.481-.252-.69c-.126-.21-.346-.387-.66-.533h-.629c-.356 0-.686.062-.99.188-.304.125-.456.418-.456.878.105.544.184 1.093.236 1.647.052.554.1 1.103.142 1.646v.126c0 .146.015.439.047.878l.11 1.537c.042.585.078 1.202.11 1.85.031.648.068 1.265.11 1.85.042.586.073 1.093.094 1.522.021.429.042.716.063.862.02.398.194.764.519 1.098.324.335.717.502 1.178.502zm25.463 0c.293 0 .534-.078.723-.235.189-.157.283-.392.283-.706 0-.23-.005-.429-.016-.596-.01-.167-.047-.366-.11-.596-.168-2.823-.278-5.243-.33-7.26-.052-2.018-.147-3.67-.283-4.956-.136-1.286-.346-2.227-.629-2.823-.283-.596-.738-.883-1.367-.862-.042 0-.12.005-.236.015-.115.01-.194.016-.236.016-1.404.376-2.598 1.004-3.583 1.882-.985.878-1.792 1.981-2.42 3.309-.63 1.328-1.09 2.864-1.384 4.61-.293 1.746-.45 3.686-.471 5.818 0 .23.068.413.204.55.136.135.31.24.519.313.21.073.419.125.628.157.21.031.399.047.566.047.398-.063.786-.246 1.163-.55.378-.302.739-.674 1.085-1.113.346-.439.68-.925 1.006-1.458.325-.533.623-1.066.896-1.6l.77-1.505c.24-.47.456-.873.644-1.208l.126.157c.02.356.052.711.094 1.067.042.292.068.596.079.91.01.313.037.574.078.783v.126c.021.272.053.617.095 1.035.042.418.089.83.141 1.239.053.407.094.768.126 1.082.031.313.047.48.047.501.084.565.252 1.015.503 1.35.252.334.681.5 1.289.5zm-7.104-5.96c0-.125.031-.412.094-.862s.141-.94.236-1.474c.094-.533.204-1.071.33-1.615.125-.544.24-.972.345-1.286.231-.67.619-1.36 1.164-2.07.544-.71 1.1-1.275 1.666-1.694-.084 1.736-.393 3.33-.928 4.783-.534 1.454-1.451 2.807-2.75 4.062-.021.02-.047.052-.079.094-.031.042-.057.063-.078.063zm12.857 5.991c.23 0 .408-.052.534-.157.126-.104.272-.24.44-.407v-1.098c0-.71-.052-1.411-.157-2.101l-.057-.416c-.067-.555-.1-1.117-.1-1.686 0-.773.167-1.547.503-2.32.335-.774.765-1.517 1.288-2.228.524-.71 1.09-1.374 1.698-1.991.608-.617 1.184-1.166 1.729-1.647.126-.042.267-.115.424-.22.157-.104.31-.224.456-.36.147-.136.272-.282.377-.44.105-.156.157-.307.157-.454 0-.418-.183-.747-.55-.988-.366-.24-.728-.36-1.084-.36-.105 0-.189.005-.252.015-.063.01-.12.032-.173.063-.052.031-.11.073-.172.125l-.283.236c-.545.48-1.022.904-1.43 1.27-.41.366-.781.71-1.117 1.035-.335.324-.66.669-.974 1.035-.314.366-.64.79-.975 1.27-.02.021-.057.063-.11.126-.052.062-.1.115-.141.156-.042-.146-.073-.25-.094-.313-.021-.063-.032-.12-.032-.173v-.455c0-.083-.01-.235-.031-.454-.021-.22-.037-.445-.047-.675-.01-.23-.027-.454-.048-.674-.02-.22-.031-.371-.031-.455-.084-.292-.288-.522-.613-.69-.325-.167-.634-.25-.927-.25-.23 0-.472.041-.723.125-.252.083-.378.261-.378.533.084.67.19 1.61.315 2.823.126 1.212.246 2.498.361 3.858.116 1.359.22 2.67.315 3.936.094 1.265.162 2.274.204 3.026.105.314.325.622.66.926.335.303.681.454 1.038.454zm13.894-.031c.272 0 .471-.157.597-.47.126-.314.189-.565.189-.753 0-.628-.063-1.244-.189-1.85-.126-.607-.24-1.224-.346-1.851-.104-.732-.173-1.49-.204-2.274s-.047-1.542-.047-2.274v-1.004c.063-.062.126-.11.188-.14.063-.032.126-.069.19-.11l5.72-2.133c.23-.105.45-.22.66-.345.21-.126.315-.324.315-.596 0-.377-.11-.706-.33-.988-.22-.282-.54-.424-.96-.424-.607 0-1.204.142-1.79.424-.588.282-1.154.538-1.698.768-.105.042-.278.105-.52.188l-.77.267c-.272.094-.528.188-.77.282-.24.094-.403.152-.487.173-.02-.272-.052-.753-.094-1.443-.042-.69-.084-1.422-.126-2.195-.042-.774-.084-1.506-.125-2.196-.042-.69-.063-1.17-.063-1.443-.021-.271-.032-.6-.032-.988 0-.386-.042-.752-.125-1.097-.084-.345-.226-.638-.425-.878-.199-.241-.508-.361-.927-.361-.356 0-.64.063-.849.188-.21.125-.314.397-.314.815 0 1.527.073 3.069.22 4.627.146 1.557.22 3.11.22 4.657v1.38c-.21.167-.487.314-.833.44-.346.125-.687.26-1.022.407-.335.146-.629.319-.88.518-.252.198-.377.454-.377.768 0 .188.036.334.11.439.073.105.162.193.267.267.105.073.21.14.314.203.105.063.2.147.283.251.042 0 .152.006.33.016.178.01.288.016.33.016.315 0 .587-.073.818-.22.23-.146.492-.22.786-.22h.125l.33 3.733c.116 1.296.226 2.488.33 3.575.042.565.241 1.015.598 1.35.356.334.817.5 1.383.5z" transform="translate(13.214 13.184) translate(0 24.855)"/>
        </g>
    </g>
</svg>
