<svg xmlns="http://www.w3.org/2000/svg" xmlns:xlink="http://www.w3.org/1999/xlink" width="24" height="24" viewBox="0 0 24 24">
    <defs>
        <path id="prefix__a" d="M7.295.705c-.39.39-.39 1.02 0 1.41L12.17 7H1c-.552 0-1 .448-1 1s.448 1 1 1h11.17l-4.876 4.884c-.389.39-.388 1.022.001 1.411.39.39 1.02.39 1.41 0L16 8 8.705.705c-.39-.39-1.02-.39-1.41 0z"/>
    </defs>
    <g fill="none" fill-rule="evenodd" transform="translate(4 4)">
        <mask id="prefix__b" fill="#fff">
            <use xlink:href="#prefix__a"/>
        </mask>
        <use fill="#C2D1D9" transform="matrix(-1 0 0 1 16 0)" xlink:href="#prefix__a"/>
        <g fill="#263D43" mask="url(#prefix__b)">
            <path d="M0 0H25V25H0z" transform="translate(-4.5 -4.5)"/>
        </g>
    </g>
</svg>
