<svg xmlns="http://www.w3.org/2000/svg" width="18" height="18" viewBox="0 0 18 18">
    <path fill="#263D43" d="M1.052 14.911c-.002.191-.158.345-.349.343-.182-.001-.33-.143-.342-.323l-.001-.025.077-9.516c.001-.19.157-.344.348-.343.183.002.331.144.343.323v.026L1.11 7.643l12.181.066c-.427-.216-.833-.528-1.218-.935.82-.867 1.735-1.3 2.746-1.3.832 0 1.6.294 2.303.882v-3.67c0-.191.155-.346.346-.346.182 0 .332.141.345.32v5.347c.005.022.007.046.007.07l-.007.056.001 1.41c.004.02.006.04.006.06l-.007.064.001 5.353c0 .191-.155.346-.346.346-.182 0-.332-.14-.345-.32l-.001-.026-.001-2.199H1.069l-.017 2.09zm16.069-4.958l-16.03.11-.017 2.066h16.047V9.953zM1.105 8.335l-.009 1.036 16.025-.11v-.843L1.105 8.335zm15.21-.61l.806.001v-.533c-.26.217-.528.394-.805.531zm-1.496-1.56c-.585 0-1.132.182-1.651.56l-.068.05.006.003c.518.393 1.063.59 1.645.604h.068c.585 0 1.131-.181 1.65-.558l.068-.05-.005-.004c-.518-.393-1.063-.59-1.646-.604h-.067z"/>
</svg>
