<svg xmlns="http://www.w3.org/2000/svg" width="18" height="18" viewBox="0 0 18 18">
    <path fill="#263D43" d="M10.933 1.99C10.3 3.096 9.654 3.618 9 3.618c-.407 0-.87-.291-1.333-.79-.171-.186-.33-.385-.47-.585-.037-.052-.07-.102-.1-.147l-.07-.111c-.093-.156-.276-.224-.441-.163L.068 4.24c-.183.068-.286.273-.235.47l.893 3.47.009.029c.061.181.24.29.423.252l2.477-.516v7.865c0 .216.167.391.373.391h9.98l.027-.001c.193-.015.345-.184.345-.39V7.941l2.559.52c.194.04.384-.088.432-.29l.818-3.47c.046-.195-.057-.396-.238-.462l-6.555-2.417c-.167-.061-.353.009-.443.168zM.643 4.855l5.921-2.196.033.048c.16.226.339.452.535.665.59.637 1.213 1.027 1.868 1.027h.058c.864-.025 1.64-.608 2.331-1.703l.02-.033 5.955 2.195-.651 2.765-2.655-.539-.027-.004c-.22-.028-.416.152-.416.388v7.95H4.381v-7.95l-.001-.03c-.017-.231-.223-.4-.444-.354l-2.581.538-.713-2.767z"/>
</svg>
