<svg xmlns="http://www.w3.org/2000/svg" width="18" height="18" viewBox="0 0 18 18">
    <path fill="#263D43" d="M10.219.36c1.077 0 1.95.873 1.95 1.95v3.588h3.581c1.225 0 2.221.98 2.25 2.197v2.65c0 1.225-.979 2.22-2.197 2.249H12.17v2.724c0 1.077-.873 1.95-1.95 1.95H7.78c-1.077 0-1.95-.873-1.95-1.95l-.001-2.724H2.25c-1.225 0-2.221-.978-2.25-2.196v-2.65C0 6.924.979 5.928 2.197 5.9h.053l3.58-.001.001-3.588c0-1.077.873-1.95 1.95-1.95h2.438zm.041.693H7.781c-.68 0-1.235.54-1.257 1.216v13.449c0 .68.54 1.235 1.216 1.257h2.479c.68 0 1.235-.54 1.257-1.216V2.31c0-.68-.54-1.235-1.216-1.257zm1.909 11.249h3.581c.845 0 1.533-.672 1.557-1.511V8.148c0-.844-.672-1.532-1.511-1.557h-.046l-3.581-.001v5.712zm-6.339 0V6.59H2.25c-.845 0-1.533.673-1.557 1.513v2.642c0 .845.672 1.532 1.511 1.557H5.83zm4.389-.77c.191 0 .346.155.346.346 0 .183-.141.332-.32.345l-.026.001H7.78c-.191 0-.346-.155-.346-.346 0-.182.141-.332.32-.345l.026-.001h2.438zm3.413-1.197c.202 0 .365.164.365.366 0 .202-.163.365-.365.365-.202 0-.366-.163-.366-.365 0-.202.164-.366.366-.366zm-10.726 0c.202 0 .365.164.365.366 0 .202-.163.365-.365.365-.202 0-.366-.163-.366-.365 0-.202.164-.366.366-.366zm12.554-1.34c.202 0 .366.163.366.365 0 .202-.164.366-.366.366-.202 0-.366-.164-.366-.366 0-.202.164-.366.366-.366zm-11.092 0c.202 0 .366.163.366.365 0 .202-.164.366-.366.366-.202 0-.365-.164-.365-.366 0-.202.163-.366.365-.366zm9.264-1.22c.202 0 .365.164.365.366 0 .202-.163.366-.365.366-.202 0-.366-.164-.366-.366 0-.202.164-.366.366-.366zm-10.726 0c.202 0 .365.164.365.366 0 .202-.163.366-.365.366-.202 0-.366-.164-.366-.366 0-.202.164-.366.366-.366zm7.313-1.728c.191 0 .346.155.346.346 0 .183-.141.332-.32.346H7.78c-.191 0-.346-.155-.346-.346 0-.182.141-.332.32-.345h2.464z"/>
</svg>
