<svg xmlns="http://www.w3.org/2000/svg" width="18" height="18" viewBox="0 0 18 18">
    <path fill="#263D43" d="M11.51 1.62c.712 0 1.29.578 1.29 1.291v.581h3.184c.915 0 1.656.742 1.656 1.656v9.416c0 .914-.741 1.656-1.656 1.656H2.016C1.1 16.22.36 15.478.36 14.564V5.148c0-.914.741-1.656 1.656-1.656H4.94v-.58c0-.67.509-1.22 1.16-1.285l.132-.007zm4.474 2.592H2.016c-.504 0-.914.398-.935.896l-.001.04-.001 4.376 6.565-.028v-.025c0-.714.58-1.294 1.293-1.294.715 0 1.294.58 1.294 1.294v.828c0 .714-.58 1.293-1.294 1.293-.714 0-1.293-.579-1.293-1.293v-.083l-6.565.028.001 4.32c0 .503.398.914.896.935h14.008c.504 0 .914-.397.935-.895l.001-.04v-4.325l-6.67.03-.003-.72 6.673-.03V5.148c0-.504-.398-.914-.896-.935h-.04zM8.937 8.897c-.305 0-.555.24-.572.541l-.001.86c0 .317.257.574.573.574.306 0 .556-.24.573-.54V9.47c0-.317-.256-.574-.573-.574zm2.605-6.556l-5.31-.001c-.316 0-.571.256-.571.571v.405h6.42v-.405c0-.304-.24-.553-.54-.57z"/>
</svg>
