<svg xmlns="http://www.w3.org/2000/svg" width="100" height="82" viewBox="0 0 100 82">
    <g fill="none" fill-rule="evenodd">
        <path fill="#25C3E8" d="M47.846 61.497s-8.066 1.988-13.724.764c-1.792-.387-4.967-1.997-7.569-3.784-2.444-1.679-4.366-3.533-4.625-4.052-.52-1.04-.23-2.14-.306-2.485-.225-1.013-1.223-1.72-1.873-2.867-.56-.987-5.085-.987-6.04-1.07-.879-.076-5.16-3.058-7.033-4.358-3.005-2.084-3.364-4.013-4.052-4.816-.688-.803-2.18-2.293-2.485-4.167-.187-1.147-.359-3.312 1.49-5.16.345-.344-.251-.545-.152-1.568.041-.424 1.911-4.97 3.784-7.454 1.97-2.613 4.107-5.043 6.575-6.69.574-.382.88-1.26 2.103-2.37.663-.6 2.185-1.26 2.542-1.7 1.95-2.409 5.753-2.447 6.326-2.848 1.319-.923 3.498-2.81 5.276-3.67C29.52 2.506 33.254 2.07 35 1.329c1.262-.535 3.21-.371 4.932-.44 1.433-.057 3.55-.86 5.275-.86 2.752 0 3.713.392 4.644.459.803.057 3.745-.414 5.792-.058 1.318.23 2.35 1.147 3.956 1.147 1.606 0 2.924-.23 4.645 0 1.72.23 6.17 2.647 8.084 3.154 1.95.516 5.338 1.502 7.283 2.752 1.605 1.032 4.759 5.103 5.619 6.365 1.186 1.74 4.014 3.727 5.39 5.906.883 1.398 1.433 3.555 1.835 4.243.777 1.332 1.834 1.95 2.523 3.555.688 1.605.994 2.28 1.72 3.784.802 1.663 2.523 2.982 2.752 6.193.23 3.21.298 4.728.115 7.569-.115 1.777 1.032 5.275 0 7.798-1.373 3.356-5.046 8.142-7.454 9.289-2.409 1.147-4.014 1.147-4.932 1.49 0 0-.573 2.638-1.433 3.842-.629.88-.593 1.97-2.007 3.154-.845.708-3.263 2.68-6.766 3.402-3.148.65-12.232.191-13.417-.535 0 0 1.72 5.81 1.643 6.919-.085 1.232-.612 1.3-1.758 1.338-1.057.035-2.18 0-3.364-1.3-.623-.683-2.18-4.281-3.097-6.116-.917-1.835-2.637-5.237-3.86-6.69-1.463-1.736-5.275-6.192-5.275-6.192" transform="matrix(-1 0 0 1 100 0)"/>
        <path stroke="#DBF3F9" stroke-linecap="round" stroke-linejoin="round" d="M47.846 61.497s-8.066 1.988-13.724.764c-1.792-.387-4.967-1.997-7.569-3.784-2.444-1.679-4.366-3.533-4.625-4.052-.52-1.04-.23-2.14-.306-2.485-.225-1.013-1.223-1.72-1.873-2.867-.56-.987-5.085-.987-6.04-1.07-.879-.076-5.16-3.058-7.033-4.358-3.005-2.084-3.364-4.013-4.052-4.816-.688-.803-2.18-2.293-2.485-4.167-.187-1.147-.359-3.312 1.49-5.16.345-.344-.251-.545-.152-1.568.041-.424 1.911-4.97 3.784-7.454 1.97-2.613 4.107-5.043 6.575-6.69.574-.382.88-1.26 2.103-2.37.663-.6 2.185-1.26 2.542-1.7 1.95-2.409 5.753-2.447 6.326-2.848 1.319-.923 3.498-2.81 5.276-3.67C29.52 2.506 33.254 2.07 35 1.329c1.262-.535 3.21-.371 4.932-.44 1.433-.057 3.55-.86 5.275-.86 2.752 0 3.713.392 4.644.459.803.057 3.745-.414 5.792-.058 1.318.23 2.35 1.147 3.956 1.147 1.606 0 2.924-.23 4.645 0 1.72.23 6.17 2.647 8.084 3.154 1.95.516 5.338 1.502 7.283 2.752 1.605 1.032 4.759 5.103 5.619 6.365 1.186 1.74 4.014 3.727 5.39 5.906.883 1.398 1.433 3.555 1.835 4.243.777 1.332 1.834 1.95 2.523 3.555.688 1.605.994 2.28 1.72 3.784.802 1.663 2.523 2.982 2.752 6.193.23 3.21.298 4.728.115 7.569-.115 1.777 1.032 5.275 0 7.798-1.373 3.356-5.046 8.142-7.454 9.289-2.409 1.147-4.014 1.147-4.932 1.49 0 0-.573 2.638-1.433 3.842-.629.88-.593 1.97-2.007 3.154-.845.708-3.263 2.68-6.766 3.402-3.148.65-12.232.191-13.417-.535 0 0 1.72 5.81 1.643 6.919-.085 1.232-.612 1.3-1.758 1.338-1.057.035-2.18 0-3.364-1.3-.623-.683-2.18-4.281-3.097-6.116-.917-1.835-2.637-5.237-3.86-6.69-1.463-1.736-5.275-6.192-5.275-6.192z" transform="matrix(-1 0 0 1 100 0)"/>
        <path fill="#DBF3F9" d="M22.31 21.474c.814-2.483-.611-4.51-1.032-5.199-.616-1.008-.84-2.37-.267-3.058.573-.688-.421 1.338.61 2.485 1.033 1.147 2.715 1.643 3.289 3.593 0 0 .344-.23 2.293-1.606 1.95-1.376 2.638-1.528 2.982-4.28.344-2.753.761-4.597 1.605-5.582.23-.267-.842 1.233-.994 3.403-.114 1.643-.063 3.596-.066 4.08-.01 1.29 2.513.353 3.469.754.398.168 1.004.724 1.471.785 2.314.296 1.147-2.163 1.204-3.785.015-.417.592-1.482.468-1.89-.274-.9-1.291-1.261-2.065-1.61-.257-.115-.696-.246-.904-.672.247.234.628.299.854.41.54.266 1.1.471 1.688.61.769.18 1.625.274 2.366-.06.391-.178.864-.481 1.144-.81.244-.284.48-.631.635-.973.527-1.165-.062-2.292-1.153-2.838-1.318-.662-2.94-.567-4.363-.42-1.99.203-4.413 1.112-6.415 1.503 1.043-.234 2.212-1.043 2.604-2.29.056-.177.038 1.031.593 1.07.732.05 2.217-.45 2.848-.573 1.084-.211 2.301-.255 3.4-.363 1.2-.118 2.442.25 3.538-.325.497-.263 1.52-1.16 1.49-1.76-.032-.665-.592-1.14-1.151-1.546.032-.008.063-.04.095-.04h.001c1.022.574 1.846 1.496 1.426 2.661-.23.642-.696 1.15-.985 1.759-.306.645-.178 1.25.042 1.903.114-.172.897-.323 1.184-.209-.574.097-1.664 1.234-2.733 2.22-1.682 1.547-2.142 2.238-2.723 3.642-.972 2.357-1.121 5.007-.89 7.52.271 2.937.633 7.929.536 7.53-.088-.36-.445-.258-.842-.325-.172-.029.837-.694.498-2.56-.154-.841-1.431-3.5-2.466-4.78-1.261-1.557-.383-3.171-2.16-3.343-1.09-.106-3.273-.398-5.18 1.127-1.863 1.49-5.027 4.645-5.093 6.193-.059 1.35 1.71 1.528 2.399 3.134.688 1.605.65 3.307.65 3.307s-.535-2.924-1.567-3.612c-1.033-.688-1.817-1.606-1.989-2.122-.115-.344-2.56 1.386-6.345 1.739-.142.014 5.237-2.466 6.001-4.797M47.464 18.34c-.015-1.818-.57-5.968-.115-7.11 1.108-2.792 3.02-3.67 3.478-5.43.344-1.318-1.151-4.182-1.92-5.53.576.095.992.188 1.404.218.803.057 3.746-.413 5.791-.058.891.155 1.652.624 2.547.912-1.556.28-3.648.815-4.381 1.745-1.147 1.452 4.786.524 3.936.726-2.254.536-3.439.956-4.28 2.141-.596.839-1.04 2.62-1.759 3.058-1.07.65-2.752 1.682-3.173 2.255-1.378 1.879-1.146 3.022-1.146 6.996 0 1.261.032 2.207.65 3.44.075.153-.402-.504-.995-.726-.333-.125-.63.309-.725.267-.303-.13.704-.91.688-2.904" transform="matrix(-1 0 0 1 100 0)"/>
        <path fill="#DBF3F9" d="M62.716 7.865c.19.115 2.207-1.025 4.433-1.07 1.912-.038 3.703.84 3.136.84-.383 0-1.954-.52-2.906-.42-1.452.153-4.855 1.223-5.505 2.065-1.801 2.331-3.593 5.007-4.09 6.46-.432 1.264.268 5.542.268 6.574 0 1.614-.306 3.747-.688 5.352-.382 1.606 1.103 2.502 2.752 1.873 1.606-.611.682-2.426 1.912-3.86 2.293-2.677 6.537.23 10.13-1.3 1.198-.51-6.996 5.963-6.231 7.493.764 1.528 3.478 2.752 2.179 2.675-.73-.043-3.683-1.431-5.238-2.331-.725-.421-1.49 0-1.911-.269-.735-.467-.688-1.184-2.217-1.643-2.274-.682-7.946 2.282-10.78 2.79-.71.128-2.297 1.105-3.134 2.064-.923 1.058-1.067 2.39-1.147 1.989-.153-.765-.153-1.453-1.376-1.835-.767-.24-2.282-.505-4.053-.498-2.282.01-5.771.574-8.18 1.491-2.23.85-6.957 5.696-8.715 8.449-.977 1.528-1.055 3.382-.938 4.658-.073-.11-.143-.221-.21-.338-.559-.989-5.084-.988-6.04-1.07-.878-.077-5.16-3.059-7.033-4.358-3.004-2.085-3.363-4.014-4.051-4.817-.33-.385-.845-.929-1.326-1.597-.157-.994-.192-1.806-.204-2.303-.018-.84.187-3.344.459-1.605.42 2.685 1.557 2.43 1.883 3.517.754 2.523 3.274 1.74 3.01 1.147-.344-.775-1.319-2.217-1.376-4.167-.057-1.95.922-3.352 1.568-3.976 1.184-1.146 3.899-1.911 3.899-1.911.282.282-1.606.841-2.83 1.797-1.35 1.054-1.776 2.137-1.576 3.755.277 2.246 1.73 4.067 3.526 3.966 3.403-.19 3.952-5.273 3.822-6.154-.229-1.567-1.88-2.752-2.159-3.517-.545-1.49-1.118-3.842-1.634-4.243-.2-.156.459.086.602.43.306.734 1.099 2.976 1.204 3.326.172.573 1.63 2.204 2.294 2.867.258.258.458.716.43.975-.066.591-.527 2.339-.602 3.698-.042.737-.784 4.109 2.293 5.963 1.736 1.046 3.498.746 5.333.344.877-.191 4.759-2.56 5.046-3.191.286-.631-1.765-1.55-2.523-2.657-.956-1.396-2.715-3.479-4.09-3.88-1.377-.401-3.25-2.084-2.562-1.568.688.516 1.835.862 2.58.918 1.013.077 1.835.917 3.04 1.892 1.204.975 3.44 1.892 5.16 1.835 1.72-.057 1.414-2.027 1.185-4.033-.23-2.007.82-4.995.994-5.772.382-1.72-1.07-5.275-.86-5.103.635.52 2.007 4.816 2.121 6.02.115 1.204.47 8.788 1.3 8.983.65.154 3.832-.344 5.39-.382 1.567-.038 4.572.22 5.466-.115 2.561-.955 2.622-2.44 2.447-3.478-.21-1.243-2.332-3.46-.67-2.6 1.664.86 3.465 2.351 6.366 1.339 2.408-.842 2.981-2.6 3.784-5.754.353-1.388-.459-5.332-.172-7.855.287-2.523 3.383-4.645 4.645-6.652 1.261-2.006.458-2.866.458-4.759 0-1.205 1.055-2.293 2.008-2.852.597-.01 1.212.01 1.891.1 1.72.23 6.171 2.647 8.085 3.154.507.134 1.112.3 1.763.494-.65-.153-1.244-.3-1.668-.417-3.167-.881-2.828-1.72-6.422-1.224-1.59.22-4.336 3.928-3.745 4.28" transform="matrix(-1 0 0 1 100 0)"/>
        <path fill="#DBF3F9" d="M54.305 44.945c-1.87.104-5.017 1.242-7.234 1.471-2.216.23-4.233-.4-5.839.21-1.606.613-1.681 1.53-1.835 2.294-.152.765-1.006-.343-1.108-.802-.039-.173-5.593.555-6.499 1.07-1.261.717-1.376 2.6-2.14 4.281-.57 1.254.053 4.337 1.834 4.894 2.043.638 1.522 2.447 3.431 3.966-.112-.02-.224-.043-.334-.067-1.792-.388-4.967-1.998-7.57-3.785-2.443-1.679-4.365-3.533-4.624-4.053-.223-.443-.296-.9-.314-1.302.113-.367.28-.77.505-1.22.153-.305.84 2.37 1.682 3.135.5.454 3.02 1.796 3.173-.421.152-2.217 1.018-2.948 2.6-4.817.575-.68-.04-3.096-4.358-4.32-.449-.125 3.784.536 4.816.918 2.947 1.092 8.763.774 9.757-.984.994-1.758-.361-3.472.115-4.33.075-.134.022.86.458 1.807.396.858 1.882 1.627 2.351 1.806 2.552.975 6.164.554 7.922-.516 1.76-1.07 2.753-2.37 3.67-4.587.918-2.217 2.477-4.104 3.747-4.28.344-.05-1.118.238-2.007 1.93-.704 1.34-2.208 3.898-1.118 5.217.582.705 1.596 1.262 3.89 1.338 2.293.076 7.262.688 7.95-.535.688-1.224-2.305-2.538-3.134-3.059-.564-.353 3.216.325 4.711 1.97.86.945 3.062.543 5.247-.631 2.293-1.233 3.526-2.208 4.788-3.957 1.643-2.278 6.049-8.773 6.049-8.773 0 .765-2.102 2.872-1.118 3.498.63.401-.192.306-.86.917-.505.461-3.24 4.96-4.73 7.225-.686 1.04-3.355 3.01-6.442 3.88-1.68.473-2.724.182-3.565.363-.971.21-2.434.991-3.813.975-2.38-.029-5.074-1.003-10.054-.726M85.346 61.955c-.698.394-1.835.373-3.01-.372-1.688-1.07-4.054-.515-6.021-.717-2.35-.242-3.644.139-5.992.487-1.688.25-3.357.578-5.046.803-1.642.218-3.175-.397-4.677-1.048-1.484-.645-3.094-1.485-4.649-.522-1.325.82-2.977 2.867-2.782 4.513.1.85.59 1.822.506 2.707-.031-.04-.063-.079-.096-.117-1.12-1.331-3.622-4.26-4.729-5.555.076-.31-1.106-.955-.804-1.039 1.462-.401 2.12-1.524 3.04-2.03 2.066-1.14 4.76-1.142 7.02-.73 2.465.45 4.788 1.49 7.327 1.516 2.457.025 4.812-.86 7.265-.855 1.802.002 3.563.496 5.232 1.136 1.182.454 2.21.486 3.451.599.845.075 1.422.231 2.216.536.524.202 1.118-.028 2.318-.523.27-.11-.133.966-.57 1.211M93.255 28.928h.001l.011-.001c-.003 0-.008.003-.01.006l-.002-.005" transform="matrix(-1 0 0 1 100 0)"/>
        <path fill="#DBF3F9" d="M94.257 35.991c-.943 1.795-1.674 3.7-2.856 5.36-1.097 1.538-2.432 2.864-3.715 4.24-1.376 1.475-2.597 2.742-4.213 3.98-1.943 1.487-3.662 1.834-5.968 1.473.808-.388 4.974-1.55 3.056-3.82-.704-.83-1.14-2.164-.835-2.547.272-.339 2.12 2.108 3.9.612 1.911-1.605.35-2.823.768-3.494.301-.482 1.304.636 3.283-.023 1.835-.611 4.053-2.523 3.594-5.81-.383-2.743-1.9-5.437-2.141-6.423-.338-1.383.152-6.132.152-7.262 0-1.683-2.446-6.881-7.992-4.834-3.274 1.21-4.35 4.6-3.93 5.969.294.954.904 3.693.878 4.193-.038.738-.701.826-.785.878.326-.432.501-.242.553-.854.056-.711-.344-1.797-.765-2.944-.706-1.926-1.184-3.822-3.593-4.625-.861-.288-1.785-1.2-2.637-1.376-.312-.064-3.32-.944-3.558-.87-.838.257-1.43 1.25-1.985 2.054-.765 1.11-1.73 2.953-2.218 3.44-.229.23 1.618-3.731 3.67-6.04.612-.688.573-6.192 1.376-6.803 0 0-.439 3.287-.459 4.051-.026 1.076.154 2.433.613 2.715.993.61 2.093.677 3.096.955 1.177.327 2.613 1.275 3.852 1.117 1.194-.153 1.866-1.637 2.059-2.681.332-1.808-.758-2.946-1.825-4.199-1.015-1.192-1.21-2.58.089-3.66.463-.386 1.904-.687 2.094-.363.158.271-2.513 1.132-.918 2.102.88.536 1.72.307 2.285.656 1.36.844.145 4.215 2.512 2.982 1.025-.534 2.05-1.048 3.08-1.545.396.52.717.961.916 1.253 1.185 1.74 4.013 3.727 5.39 5.906.882 1.398 1.433 3.555 1.834 4.243.239.408.504.75.777 1.073-1.362 1.01-2.879 2.25-2.612 3.361.44 1.83 2.866 1.9 3.816 3.265.941 1.356.028 3.029-.638 4.295" transform="matrix(-1 0 0 1 100 0)"/>
    </g>
</svg>
