<svg xmlns="http://www.w3.org/2000/svg" xmlns:xlink="http://www.w3.org/1999/xlink" width="246" height="104" viewBox="0 0 246 104">
    <defs>
        <path id="prefix__a" d="M0 0H124V110H0z"/>
        <path id="prefix__c" d="M0 0L99.81 0 99.81 76.616 0 76.616z"/>
        <path id="prefix__e" d="M0 0.291L94.819 0.291 94.819 73.077 0 73.077z"/>
    </defs>
    <g fill="none" fill-rule="evenodd">
        <g transform="translate(4 -10) translate(57.11)">
            <mask id="prefix__b" fill="#fff">
                <use xlink:href="#prefix__a"/>
            </mask>
            <g mask="url(#prefix__b)">
                <g transform="rotate(-50 90.312 41.633)">
                    <mask id="prefix__d" fill="#fff">
                        <use xlink:href="#prefix__c"/>
                    </mask>
                    <path fill="#DBF3F9" d="M2.315 1.648c3.544-1.735 16.818 1.508 30.392.905C46.282 1.95 77.436 2.4 86.101.893c3.469-.603 8.145-1.81 10.558.302 2.413 2.112 1.207 8.838 1.207 15.536 0 4.035 1.132 43.792 1.508 45.701 1.81 9.2-2.263 13.273-7.692 12.971-2.021-.112-28.507-.15-32.429-.15-8.91 0-41.19-1.242-44.645-.15-2.866.904-10.687 2.597-12.067.527-2.262-3.394-.15-11.086.453-14.404.603-3.318-.22-20.032-.755-25.642C1.636 29.25.136 12.984.053 11.15c-.227-4.977.232-8.509 2.262-9.502" mask="url(#prefix__d)"/>
                    <g transform="translate(2.715 1.81)">
                        <mask id="prefix__f" fill="#fff">
                            <use xlink:href="#prefix__e"/>
                        </mask>
                        <path fill="#25C3E8" d="M84.948 52.796c-.142 1.505-4.513-3.271-8.455-7.093-4.35-4.221-8.74-7.733-8.74-9.672 0-.85 4.475-4.483 8.598-8.67 3.843-3.903 7.325-8.382 8.167-8.954 2.438-1.646 1.006 28.362.43 34.39m-4.084 9.671c-1.29-.215-8.597.43-12.466.43-3.868 0-16.334-.572-19.988-.572s-12.037.787-14.186.357c-2.15-.43-12.251-.86-15.045-.43-1.672.258 5.283-6.25 11.035-11.821 3.855-3.736 7.032-7.35 7.234-7.093 2.016 2.588 6.525 9.225 13.111 8.812 4.587-.288 7.02-6.736 10.029-8.739 3.288-2.192 21.566 19.27 20.276 19.056m-69.853-8.167c-.653-.654.628-9.47.572-18.485-.051-8.825-1.457-17.848-.357-18.484C13.96 15.746 25.83 30.886 30.57 35.816c1.793 1.862-3.654 6.448-7.81 10.605-2.158 2.158-10.459 9.17-11.749 7.88m66.844-42.557c1.363 1.29-7.307 10.674-9.672 13.468-2.364 2.794-12.393 12.466-17.912 14.473-1.414.516-16.335-11.748-21.205-16.335-2.042-1.921-10.102-11.606-10.102-11.606s56.794-1.986 58.891 0m16.55 47.857c-.357-1.814-1.431-39.582-1.431-43.416 0-6.362 1.143-12.75-1.148-14.758C89.535-.58 85.09.567 81.797 1.14 73.565 2.571 43.97 2.145 31.073 2.717 18.177 3.289 5.565.21 2.2 1.857.27 2.803-.165 6.156.05 10.884c.077 1.741 1.504 17.195 2.076 23.213.507 5.33 1.29 21.205.718 24.36-.572 3.151-2.58 10.459-.43 13.683 1.311 1.969 8.74.357 11.465-.503 3.28-1.036 33.946.146 42.41.146 3.727 0 28.887.035 30.808.142 5.159.288 9.028-3.58 7.308-12.324" mask="url(#prefix__f)"/>
                    </g>
                </g>
            </g>
        </g>
        <path fill-rule="nonzero" stroke="#25C3E8" stroke-linecap="round" stroke-width="7" d="M0 109.543c81.252-1.443 158.557-.593 238-1" transform="translate(4 -10)"/>
    </g>
</svg>
