<svg xmlns="http://www.w3.org/2000/svg" width="202" height="100" viewBox="0 0 202 100">
    <g fill="none" fill-rule="evenodd">
        <path fill="#25C3E8" d="M181.55 36.596c.919.93-4.678 1.17-9.403 1.655-5.217.533-9.985 1.487-11.27.408-.565-.473-.486-5.459-.97-10.519-.452-4.717-1.487-9.516-1.397-10.392.263-2.531 19.364 15.113 23.04 18.848m4.143 8.086c-.86.735-4.494 5.935-6.645 8.498-2.15 2.563-9.459 10.503-11.49 12.924-2.031 2.42-6.17 8.411-7.649 9.596-1.48 1.185-7.38 7.638-8.648 9.728-.759 1.251-1.208-6.977-1.705-13.887-.333-4.633-.964-8.749-.68-8.74 2.836.105 9.743.81 13.13-3.782 2.359-3.199-.564-8.398-.22-11.506.375-3.398 24.767-3.566 23.907-2.83m-44.245 41.731c-.797.07-5.93-5.684-11.939-10.663-5.88-4.875-12.644-8.964-12.454-10.047.468-2.694 17.104-2.133 23.01-2.531 2.23-.152 2.243 6.008 2.689 11.074.231 2.63.265 12.03-1.306 12.167m8.94-67.96c1.612-.185 3.015 10.78 3.553 13.9.539 3.122 1.377 15.147-.36 19.92-.445 1.224-16.87 4.285-22.619 4.96-2.409.284-13.311.235-13.311.235s30.254-38.73 32.737-39.014m40.931 15.662c-1.401-.773-27.04-21.074-29.583-23.207-4.218-3.54-7.818-7.852-10.423-7.45-2.604.4-4.314 3.984-5.765 6.483-3.627 6.25-20.361 25.62-27.151 34.481-6.79 8.862-15.841 15.505-16.62 18.65-.447 1.805 1.535 3.958 4.79 6.447 1.197.917 12.237 8.57 16.545 11.539 3.817 2.63 14.777 10.943 16.552 13.078 1.771 2.131 5.5 7.527 8.833 7.897 2.034.227 5.094-5.591 6.04-7.875 1.136-2.75 18.966-22.407 23.672-28.015 2.071-2.469 16.08-19.117 17.22-20.33 3.058-3.258 2.643-7.973-4.11-11.698" transform="translate(4 -3)"/>
        <path fill-rule="nonzero" stroke="#25C3E8" stroke-linecap="round" stroke-linejoin="round" stroke-width="7" d="M125 94.443c-45.908-2.817-75.908-2.817-90 0M90 62.33c-46.531-1.773-76.531-1.773-90 0M24 29s68.475 2 90 2" transform="translate(4 -3)"/>
    </g>
</svg>
