<svg xmlns="http://www.w3.org/2000/svg" xmlns:xlink="http://www.w3.org/1999/xlink" width="40" height="40" viewBox="0 0 40 40">
    <defs>
        <filter id="prefix__a" width="238.2%" height="238.2%" x="-69.1%" y="-62.8%" filterUnits="objectBoundingBox">
            <feOffset dy="2" in="SourceAlpha" result="shadowOffsetOuter1"/>
            <feGaussianBlur in="shadowOffsetOuter1" result="shadowBlurOuter1" stdDeviation="7"/>
            <feColorMatrix in="shadowBlurOuter1" values="0 0 0 0 0 0 0 0 0 0 0 0 0 0 0 0 0 0 0.1 0"/>
        </filter>
        <circle id="prefix__b" cx="20" cy="20" r="15.918"/>
    </defs>
    <g fill="none" fill-rule="evenodd">
        <use fill="#000" filter="url(#prefix__a)" xlink:href="#prefix__b"/>
        <use fill="#FFF" xlink:href="#prefix__b"/>
        <g fill="#263D43" fill-rule="nonzero">
            <path d="M4.954 8.074c1.077 2.118 2.813 3.846 4.931 4.931l1.646-1.646c.202-.202.502-.27.764-.18.838.277 1.743.427 2.671.427.412 0 .748.337.748.748v2.612c0 .412-.336.748-.748.748-7.027 0-12.721-5.694-12.721-12.72 0-.412.337-.75.748-.75h2.62c.41 0 .748.338.748.75 0 .935.15 1.833.426 2.67.082.263.023.554-.187.764L4.954 8.074z" transform="translate(11.02 11.02)"/>
        </g>
    </g>
</svg>
