<svg xmlns="http://www.w3.org/2000/svg" width="19" height="18" viewBox="0 0 19 18">
    <path fill="#263D43" d="M2.9 2.71c.41.072.712.42.724.836l.224 7.845.288.03c.425.046.814.092 1.168.14l-.54-.84-.012-.02c-.2-.334-.09-.767.245-.967.356-.212.806-.164 1.11.113l.031.03L8.07 11.82c.415.418.495 1.045.234 1.544-.02.187-.083.372-.192.538l-.034.05-.19.261c-.615.844-1.648 1.273-2.676 1.118l-.063-.01-1.266-.221c-.224-.04-.428-.146-.586-.304-.609-.203-1.292-.804-2.05-1.803-.471-.622-.66-1.413-.523-2.182l1.348-7.52c.07-.387.44-.647.829-.58zm13.898.51l.01.035.007.036 1.348 7.52c.137.768-.053 1.559-.524 2.18-.758 1-1.441 1.601-2.05 1.805-.158.157-.362.264-.586.303l-1.265.22c-1.05.183-2.112-.246-2.739-1.107l-.19-.261c-.12-.166-.193-.351-.22-.54-.284-.505-.21-1.153.215-1.58l1.944-1.953c.303-.304.773-.363 1.141-.144.332.198.44.627.243.96l-.015.024-.552.845c.353-.048.741-.094 1.165-.14l.308-.032.225-7.845c.012-.415.314-.764.723-.835.364-.064.713.16.812.509zm-.692.2l-.016.005c-.055.017-.096.063-.105.12l-.003.021-.242 8.476-.774.08-.283.03c-.277.031-.538.062-.782.093l-.24.032-1.56.212 1.4-2.146-.002-.002c-.073-.033-.16-.022-.222.028l-.018.017-1.944 1.953c-.182.183-.226.46-.116.687l.017.032.065.117.02.132c.01.066.032.128.067.186l.023.034.19.261c.454.624 1.216.942 1.976.831l.057-.009 1.266-.22c.065-.012.126-.04.177-.083l.024-.022.12-.119.16-.053c.442-.148 1.026-.662 1.704-1.556.338-.446.48-1.007.399-1.558l-.01-.061-1.348-7.517zm-13.326 0l-1.347 7.518c-.103.57.038 1.157.388 1.619.66.87 1.23 1.38 1.667 1.542l.037.013.16.054.12.119c.047.047.105.08.17.097l.032.007 1.257.22.055.009c.745.112 1.492-.189 1.952-.784l.034-.046.18-.247.025-.035c.037-.055.06-.116.073-.18l.005-.038.015-.137.063-.122c.115-.22.083-.488-.081-.675l-.026-.027-1.92-1.93-.019-.019c-.064-.058-.156-.072-.233-.036l-.008.004 1.372 2.137-1.544-.209-.237-.03c-.282-.037-.586-.072-.91-.107l-.285-.03-.629-.064-.242-8.477c-.002-.066-.046-.122-.107-.141L2.78 3.42zm10.087.265c1.204 1.231.044 3.135-3.206 5.743-.056.045-.124.072-.195.078l-.03.001h-.06c-.082 0-.162-.028-.226-.079l-.192-.156c-3.104-2.528-4.194-4.38-3.014-5.587 1.065-1.089 2.248-.817 3.399.66l.062.082.021-.027c1.164-1.525 2.363-1.817 3.441-.715zM9.735 5.207c-.072.107-.192.164-.312.16l-.018-.002-.017.002c-.111.003-.221-.044-.294-.136l-.018-.024-.082-.12C8.001 3.65 7.217 3.412 6.46 4.187c-.714.73.14 2.206 2.802 4.402l.144.119.063-.052c2.698-2.21 3.586-3.701 2.906-4.446l-.022-.023c-.779-.796-1.585-.525-2.617 1.019z"/>
</svg>
