<svg xmlns="http://www.w3.org/2000/svg" xmlns:xlink="http://www.w3.org/1999/xlink" width="10" height="10" viewBox="0 0 10 10">
    <defs>
        <path id="prefix__a" d="M4 .29c.23 0 .415.187.415.416v2.29l1.62-1.619c.142-.142.361-.16.523-.053l.065.053c.162.162.162.425 0 .588l-1.62 1.619h2.29c.202 0 .37.143.408.332L7.709 4c0 .23-.186.415-.415.415H5.002l1.62 1.62c.143.142.16.361.054.523l-.053.065c-.162.162-.425.162-.588 0l-1.62-1.621v2.292c0 .2-.142.368-.331.407L4 7.709c-.23 0-.415-.186-.415-.415l-.001-2.291-1.62 1.62c-.141.142-.36.16-.522.053l-.065-.053c-.162-.162-.162-.425 0-.588l1.62-1.62H.707c-.202 0-.37-.142-.408-.331L.291 4c0-.23.186-.415.415-.415l2.29-.001-1.619-1.62c-.142-.141-.16-.36-.053-.522l.053-.065c.162-.162.425-.162.588 0l1.619 1.619V.706c0-.2.143-.368.332-.407z"/>
    </defs>
    <g fill="none" fill-rule="evenodd" transform="translate(1 1)">
        <mask id="prefix__b" fill="#fff">
            <use xlink:href="#prefix__a"/>
        </mask>
        <use fill="#C2D1D9" xlink:href="#prefix__a"/>
        <g fill="#25C3E8" mask="url(#prefix__b)">
            <path d="M0 0H18.75V18.75H0z" transform="translate(-1 -1)"/>
        </g>
    </g>
</svg>
