<svg xmlns="http://www.w3.org/2000/svg" width="38" height="49" viewBox="0 0 38 49">
    <g fill="none" fill-rule="evenodd">
        <path fill-rule="nonzero" d="M0 0H48.077V60H0z" transform="translate(-5 -5)"/>
        <path stroke="#263D43" stroke-linecap="round" d="M39.044 17.38c-.085 2.472-.078 6.675-.055 9.535.055 6.533.507 16.78.055 17.063-.993.62-16.498 1.465-20.14-4.619-3.642-6.084 1.212-18.121 6.865-15.614 3.034 1.345 2.999 9.086 4.173 14.008.867 3.636 2.112 5.547 3.095 6.225 2.064 1.424 7.378 3.823 9.458 9.868M16.628 30.208c.547.045 1.995-.063 2.692 0M25.439 6.378C13.904 16.129 10.656 18.173 5.775 22.59M21.604 6.154c8.525 7.156 13.74 10.549 20.9 16.437M10.116 16.703c-1.015 4.875-.04 16.13-.04 27" transform="translate(-5 -5)"/>
        <path stroke="#25C3E8" stroke-linecap="round" stroke-width="1.5" d="M22.83 28.013c-.42.158-.126.559.056.397.273-.243.27-.48-.125-.412" transform="translate(-5 -5)"/>
    </g>
</svg>
