<svg xmlns="http://www.w3.org/2000/svg" viewBox="-20 -20 80 80">
    <g fill="none" fill-rule="evenodd">
        <path fill="#25C3E8" d="M22.863 29.864s-3.854.965-6.558.371c-.856-.188-2.373-.97-3.616-1.837-1.168-.816-2.087-1.716-2.21-1.968-.249-.505-.11-1.04-.147-1.207-.108-.492-.584-.835-.895-1.392-.267-.48-2.43-.48-2.886-.52-.42-.037-2.466-1.485-3.361-2.116-1.436-1.012-1.608-1.95-1.936-2.339-.33-.39-1.042-1.114-1.188-2.023-.089-.558-.171-1.609.713-2.507.164-.166-.12-.264-.073-.76.02-.206.913-2.414 1.808-3.62.941-1.27 1.962-2.45 3.142-3.249.274-.186.42-.613 1.005-1.15.317-.293 1.044-.613 1.214-.827.932-1.17 2.75-1.188 3.023-1.383.63-.448 1.672-1.364 2.521-1.782.687-.338 2.472-.55 3.306-.91.603-.26 1.534-.18 2.357-.213.685-.028 1.697-.418 2.52-.418 1.316 0 1.775.19 2.22.223.384.028 1.79-.2 2.767-.028.63.111 1.124.557 1.89.557.768 0 1.398-.112 2.22 0 .822.111 2.95 1.285 3.864 1.531.931.25 2.55.73 3.48 1.337.767.501 2.274 2.478 2.685 3.09.566.845 1.918 1.81 2.575 2.869.422.679.685 1.726.877 2.06.371.647.877.947 1.205 1.727.33.78.476 1.107.822 1.837.384.808 1.206 1.448 1.316 3.008.11 1.56.142 2.296.054 3.675-.054.864.494 2.562 0 3.787-.656 1.63-2.41 3.954-3.562 4.511-1.15.557-1.917.557-2.356.724 0 0-.274 1.281-.685 1.866-.3.427-.283.956-.959 1.531-.404.344-1.56 1.302-3.233 1.652-1.504.316-5.845.093-6.412-.26 0 0 .822 2.822.786 3.36-.04.599-.292.632-.84.65-.505.017-1.042 0-1.608-.631-.298-.332-1.041-2.08-1.48-2.97-.438-.891-1.26-2.543-1.844-3.249-.7-.843-2.521-3.007-2.521-3.007" transform="matrix(-1 0 0 1 48 0)"/>
        <path stroke="#DBF3F9" stroke-linecap="round" stroke-linejoin="round" stroke-width=".5" d="M22.863 29.864s-3.854.965-6.558.371c-.856-.188-2.373-.97-3.616-1.837-1.168-.816-2.087-1.716-2.21-1.968-.249-.505-.11-1.04-.147-1.207-.108-.492-.584-.835-.895-1.392-.267-.48-2.43-.48-2.886-.52-.42-.037-2.466-1.485-3.361-2.116-1.436-1.012-1.608-1.95-1.936-2.339-.33-.39-1.042-1.114-1.188-2.023-.089-.558-.171-1.609.713-2.507.164-.166-.12-.264-.073-.76.02-.206.913-2.414 1.808-3.62.941-1.27 1.962-2.45 3.142-3.249.274-.186.42-.613 1.005-1.15.317-.293 1.044-.613 1.214-.827.932-1.17 2.75-1.188 3.023-1.383.63-.448 1.672-1.364 2.521-1.782.687-.338 2.472-.55 3.306-.91.603-.26 1.534-.18 2.357-.213.685-.028 1.697-.418 2.52-.418 1.316 0 1.775.19 2.22.223.384.028 1.79-.2 2.767-.028.63.111 1.124.557 1.89.557.768 0 1.398-.112 2.22 0 .822.111 2.95 1.285 3.864 1.531.931.25 2.55.73 3.48 1.337.767.501 2.274 2.478 2.685 3.09.566.845 1.918 1.81 2.575 2.869.422.679.685 1.726.877 2.06.371.647.877.947 1.205 1.727.33.78.476 1.107.822 1.837.384.808 1.206 1.448 1.316 3.008.11 1.56.142 2.296.054 3.675-.054.864.494 2.562 0 3.787-.656 1.63-2.41 3.954-3.562 4.511-1.15.557-1.917.557-2.356.724 0 0-.274 1.281-.685 1.866-.3.427-.283.956-.959 1.531-.404.344-1.56 1.302-3.233 1.652-1.504.316-5.845.093-6.412-.26 0 0 .822 2.822.786 3.36-.04.599-.292.632-.84.65-.505.017-1.042 0-1.608-.631-.298-.332-1.041-2.08-1.48-2.97-.438-.891-1.26-2.543-1.844-3.249-.7-.843-2.521-3.007-2.521-3.007z" transform="matrix(-1 0 0 1 48 0)"/>
        <path fill="#DBF3F9" d="M10.66 10.428c.39-1.206-.291-2.19-.492-2.524-.295-.49-.402-1.151-.128-1.486.274-.334-.201.65.292 1.207s1.297.798 1.571 1.745c0 0 .165-.111 1.096-.78.932-.668 1.26-.742 1.425-2.079.164-1.336.364-2.232.767-2.71.11-.13-.403.599-.475 1.652-.055.798-.03 1.747-.032 1.982-.004.626 1.201.171 1.658.366.19.081.48.352.703.381 1.106.144.548-1.05.575-1.838.007-.202.283-.72.224-.917-.131-.438-.617-.613-.987-.782-.123-.057-.333-.12-.432-.327.118.114.3.145.408.2.259.128.526.228.807.295.367.088.777.134 1.13-.03.187-.085.413-.232.547-.392.117-.138.23-.307.303-.473.253-.565-.03-1.113-.55-1.378-.63-.321-1.405-.275-2.085-.204-.952.099-2.109.54-3.066.73.499-.113 1.057-.506 1.245-1.112.027-.086.018.5.283.52.35.024 1.06-.219 1.36-.279.52-.102 1.1-.123 1.626-.176.573-.057 1.167.122 1.69-.158.238-.127.726-.563.712-.854-.015-.323-.283-.554-.55-.751.016-.004.03-.02.046-.02.489.28.882.727.681 1.293-.11.312-.332.558-.47.854-.147.313-.085.607.02.924.054-.083.428-.157.565-.101-.274.046-.795.599-1.305 1.077-.804.752-1.024 1.088-1.301 1.77-.465 1.144-.536 2.43-.426 3.651.13 1.426.303 3.85.256 3.657-.042-.175-.212-.126-.402-.158-.082-.014.4-.337.238-1.243-.073-.409-.684-1.7-1.178-2.321-.603-.756-.183-1.54-1.033-1.624-.52-.051-1.564-.193-2.474.547-.89.724-2.403 2.256-2.435 3.008-.028.656.818.742 1.147 1.522.329.78.31 1.606.31 1.606s-.255-1.42-.749-1.754c-.493-.335-.868-.78-.95-1.03-.055-.168-1.223.672-3.032.844-.068.006 2.503-1.198 2.868-2.33M22.68 8.906c-.007-.883-.271-2.898-.054-3.453.529-1.355 1.443-1.782 1.662-2.636.164-.64-.55-2.031-.918-2.685.275.045.474.09.671.105.384.028 1.79-.2 2.768-.028.425.075.789.303 1.217.443-.744.136-1.744.396-2.094.847-.548.705 2.287.255 1.881.353-1.077.26-1.643.464-2.046 1.04-.284.407-.496 1.272-.84 1.484-.512.316-1.315.817-1.516 1.096-.659.912-.548 1.467-.548 3.397 0 .612.015 1.072.31 1.67.037.075-.191-.245-.474-.352-.16-.06-.301.15-.347.13-.145-.063.336-.442.328-1.41" transform="matrix(-1 0 0 1 48 0)"/>
        <path fill="#DBF3F9" d="M29.969 3.82c.09.055 1.055-.499 2.118-.52.914-.019 1.77.408 1.499.408-.183 0-.934-.253-1.39-.204-.693.074-2.319.594-2.63 1.003-.86 1.132-1.716 2.431-1.954 3.137-.206.613.128 2.691.128 3.192 0 .784-.146 1.82-.329 2.6-.182.779.527 1.214 1.315.909.768-.297.327-1.179.914-1.875 1.096-1.3 3.124.112 4.84-.631.573-.248-3.342 2.896-2.977 3.639.365.742 1.662 1.336 1.041 1.299-.349-.021-1.76-.695-2.502-1.132-.347-.205-.713 0-.914-.13-.351-.228-.329-.576-1.06-.799-1.086-.331-3.796 1.108-5.15 1.355-.34.062-1.098.537-1.498 1.003-.441.513-.51 1.16-.548.965-.073-.371-.073-.705-.657-.89-.367-.117-1.091-.246-1.937-.242-1.09.004-2.758.278-3.909.724-1.065.412-3.325 2.766-4.165 4.102-.467.743-.504 1.643-.448 2.262-.034-.053-.068-.107-.1-.164-.267-.48-2.43-.48-2.886-.52-.42-.037-2.466-1.485-3.36-2.116-1.437-1.012-1.608-1.949-1.937-2.339-.158-.187-.404-.45-.633-.775-.075-.483-.092-.878-.098-1.119-.009-.408.09-1.624.22-.78.2 1.305.744 1.181.9 1.709.36 1.225 1.564.844 1.438.557-.165-.376-.63-1.077-.658-2.024-.027-.946.44-1.628.75-1.93.565-.557 1.862-.929 1.862-.929.135.137-.767.409-1.352.873-.645.512-.848 1.038-.753 1.824.133 1.09.826 1.974 1.685 1.925 1.626-.092 1.888-2.56 1.826-2.988-.11-.761-.898-1.336-1.031-1.708-.26-.724-.535-1.866-.781-2.06-.096-.076.219.041.287.208.147.357.525 1.446.576 1.615.082.279.779 1.07 1.096 1.393.123.125.219.348.205.473-.031.287-.251 1.136-.287 1.796-.02.358-.375 1.995 1.096 2.896.83.508 1.67.362 2.548.167.419-.093 2.274-1.244 2.41-1.55.138-.306-.842-.752-1.205-1.29-.456-.678-1.297-1.69-1.954-1.884-.658-.195-1.553-1.012-1.224-.761.329.25.877.418 1.233.445.484.037.877.446 1.452.919.576.473 1.644.919 2.466.891.822-.028.676-.984.566-1.959-.11-.974.393-2.425.475-2.803.183-.835-.511-2.561-.41-2.478.303.252.958 2.34 1.013 2.924.055.585.225 4.268.62 4.362.312.075 1.832-.167 2.577-.185.749-.019 2.184.106 2.612-.056 1.223-.464 1.252-1.185 1.169-1.689-.1-.604-1.114-1.68-.32-1.263.795.418 1.656 1.142 3.042.65 1.15-.408 1.424-1.262 1.808-2.794.169-.674-.22-2.59-.082-3.814.137-1.226 1.616-2.256 2.22-3.23.602-.975.218-1.393.218-2.312 0-.585.504-1.113.96-1.385.285-.005.579.005.903.049.822.111 2.95 1.285 3.864 1.531.242.065.53.146.842.24-.31-.074-.595-.145-.797-.202-1.513-.428-1.351-.836-3.068-.595-.76.107-2.072 1.908-1.79 2.08" transform="matrix(-1 0 0 1 48 0)"/>
        <path fill="#DBF3F9" d="M25.95 21.826c-.894.05-2.398.603-3.457.715-1.06.111-2.023-.195-2.79.102-.767.297-.804.743-.877 1.113-.073.372-.48-.166-.53-.389-.018-.084-2.672.27-3.105.52-.603.348-.658 1.262-1.023 2.079-.272.608.026 2.106.877 2.376.976.31.727 1.188 1.64 1.926-.054-.01-.108-.02-.16-.033-.857-.188-2.374-.97-3.617-1.837-1.168-.816-2.087-1.716-2.21-1.968-.107-.216-.142-.438-.15-.633.054-.178.134-.374.241-.593.073-.148.402 1.152.803 1.523.24.22 1.444.872 1.517-.204.073-1.077.486-1.432 1.242-2.34.275-.33-.019-1.503-2.082-2.097-.215-.061 1.808.26 2.301.445 1.409.53 4.187.376 4.663-.478.475-.853-.173-1.686.054-2.102.036-.066.01.417.22.877.189.417.899.79 1.123.877 1.22.474 2.945.27 3.785-.25.841-.52 1.316-1.151 1.754-2.228.438-1.076 1.184-1.993 1.79-2.079.165-.023-.534.116-.959.938-.336.65-1.055 1.893-.534 2.533.278.343.763.613 1.859.65 1.096.037 3.47.334 3.799-.26.329-.594-1.101-1.232-1.498-1.485-.27-.172 1.537.158 2.252.956.41.46 1.463.264 2.507-.306 1.096-.599 1.685-1.072 2.287-1.921.786-1.107 2.891-4.26 2.891-4.26 0 .37-1.004 1.394-.534 1.698.301.195-.092.149-.411.445-.241.224-1.548 2.409-2.26 3.509-.328.504-1.604 1.462-3.079 1.884-.802.23-1.301.088-1.703.176-.464.102-1.163.482-1.822.474-1.137-.014-2.425-.488-4.804-.353M40.782 30.087c-.333.19-.876.18-1.438-.181-.806-.52-1.937-.25-2.877-.348-1.122-.118-1.741.067-2.863.236-.807.122-1.604.281-2.412.39-.784.106-1.516-.192-2.234-.509-.71-.313-1.479-.721-2.222-.253-.633.398-1.422 1.392-1.33 2.191.049.413.282.885.242 1.315-.014-.02-.03-.038-.045-.057-.535-.646-1.731-2.069-2.26-2.697.036-.151-.529-.465-.384-.505.699-.195 1.013-.74 1.452-.986.988-.553 2.275-.554 3.355-.354 1.178.218 2.288.723 3.501.736 1.174.012 2.3-.418 3.472-.416.861.002 1.702.242 2.5.552.564.22 1.056.236 1.649.291.404.037.68.113 1.059.26.25.099.534-.013 1.108-.253.128-.054-.064.469-.273.588M45.67 15.274h.027c.074 0 .176 0 .252-.025-.076.025-.178.077-.252.129 0-.026-.028-.052-.028-.104" transform="matrix(-1 0 0 1 48 0)"/>
        <path fill="#DBF3F9" d="M45.04 17.478c-.45.871-.8 1.797-1.364 2.603-.524.747-1.162 1.39-1.775 2.059-.658.716-1.241 1.331-2.014 1.932-.928.723-1.75.891-2.851.716.386-.188 2.376-.753 1.46-1.855-.336-.403-.545-1.051-.399-1.237.13-.164 1.013 1.024 1.863.297.914-.78.167-1.37.367-1.697.145-.233.624.31 1.57-.01.876-.298 1.936-1.226 1.717-2.823-.183-1.331-.908-2.64-1.023-3.118-.162-.672.073-2.978.073-3.527 0-.817-1.17-3.341-3.82-2.347-1.564.587-2.078 2.233-1.877 2.898.14.464.431 1.793.419 2.036-.018.359-.335.402-.375.427.156-.21.24-.118.264-.415.027-.345-.164-.873-.365-1.43-.338-.935-.566-1.856-1.717-2.246-.412-.14-.853-.583-1.26-.668-.15-.031-1.587-.458-1.7-.423-.401.126-.684.608-.949.998-.366.539-.827 1.434-1.06 1.671-.11.112.773-1.812 1.754-2.933.292-.334.274-3.007.657-3.304 0 0-.21 1.596-.219 1.967-.012.523.074 1.182.293 1.319.474.296 1 .329 1.48.463.562.16 1.248.62 1.84.543.57-.074.892-.795.984-1.302.159-.878-.363-1.43-.872-2.039-.485-.58-.578-1.253.042-1.778.221-.187.91-.333 1-.176.076.132-1.2.55-.438 1.021.42.26.822.149 1.092.319.65.41.07 2.046 1.2 1.448.49-.26.98-.51 1.472-.75.19.252.343.466.438.608.566.845 1.918 1.81 2.575 2.868.422.679.685 1.726.877 2.06.114.199.24.364.371.522-.65.49-1.375 1.092-1.248 1.632.21.888 1.37.923 1.823 1.585.45.659.014 1.471-.304 2.086" transform="matrix(-1 0 0 1 48 0)"/>
    </g>
</svg>
