<svg xmlns="http://www.w3.org/2000/svg" width="18" height="18" viewBox="0 0 18 18">
    <path fill="#263D43" d="M14.005.54c.714 0 1.517 1.676 2.468 4.509l.071.211c.758 2.295 1.322 4.602 1.34 5.59v.045c0 .469-.322 1.78-.978 4.01l-.22.741-.103.345-.012-.003c-.082.377-.28.732-.588 1.01-.15.136-.32.247-.505.329-1.311.583-2.847-.007-3.43-1.319l-.018-.04-1.152-2.716c-.232-.545-.14-1.154.2-1.602l.01-.012c.14-.347.363-.666.66-.924l1.7-1.478c.146-.128.316-.211.493-.252l.002.22c0-.656-.048-1.404-.141-2.307l-.046-.422c-.033-.295-.07-.603-.117-.977l-.21-1.675c-.108-.883-.128-1.147-.147-1.612-.018-.45 0-.792.063-1.047.092-.375.307-.624.66-.624zm-.062 9.22l-.023.019-1.699 1.478c-.19.165-.338.366-.44.59l-.027.062-.036.09-.067.087c-.183.24-.232.559-.127.844l.016.041 1.166 2.745c.421.948 1.532 1.374 2.48.953.115-.051.221-.12.315-.205.48-.433.528-1.167.116-1.658l-.03-.033-2.258-2.503 1.22-1.646c.182-.246.165-.585-.04-.81-.148-.163-.394-.184-.566-.054zm.101-8.426v.003c-.038.153-.054.389-.047.705l.004.14c.018.44.038.699.143 1.557l.257 2.058c.034.274.062.518.088.76l.03.28c.088.854.137 1.576.144 2.22.14.06.269.151.378.272.437.48.473 1.202.087 1.723l-.87 1.173 1.864 2.066c.058.063.11.13.157.197.577-1.981.875-3.195.884-3.575v-.018c0-.888-.591-3.291-1.372-5.617-.378-1.124-.764-2.123-1.109-2.856l-.038-.08c-.184-.385-.353-.683-.497-.88-.033-.046-.064-.085-.092-.117l-.01-.011zM5.397 3.758l.012.022c.07.102.128.211.174.325h2.893c.911-.025 1.689.62 1.718 1.464v.047c0 .492-.25.925-.638 1.207.366.294.599.74.599 1.24 0 .515-.246.972-.63 1.269.34.26.555.64.555 1.072 0 .436-.22.82-.564 1.08.344.26.564.644.564 1.08 0 .812-.76 1.44-1.67 1.44H5.63c-.91 0-1.67-.628-1.67-1.44 0-.504.177-.883.507-1.126-.311-.257-.507-.622-.507-1.034 0-.542.205-.939.582-1.177-.3-.282-.493-.677-.506-1.116l-.002-.044-.03.052c-.596 1.036-1.918 1.392-2.954.795C.964 8.865.882 8.81.804 8.75-.102 8.046-.267 6.742.436 5.836c.075-.097.16-.188.25-.27l2.312-2.081c.321-.29.73-.427 1.136-.412.511-.033 1.007.23 1.263.685zm3.014 8.086H5.629c-.687 0-.949.216-.949.72 0 .38.411.72.95.72h2.78c.539 0 .95-.34.95-.72 0-.38-.411-.72-.95-.72zm0-2.16H5.629c-.687 0-.949.216-.949.72 0 .38.411.72.95.72h2.78c.539 0 .95-.34.95-.72 0-.38-.411-.72-.95-.72zm.075-2.52H6.7c.043.574-.286 1.135-.85 1.36l-.038.014c-.302.11-.618.11-.902.019.162.234.437.394.754.406h2.822c.527 0 .949-.405.949-.9 0-.48-.4-.878-.909-.898l-.04-.001zM4.218 3.79l-.038.002-.036.002-.037-.002c-.214-.008-.424.061-.592.198l-.035.03L1.169 6.1c-.06.055-.115.114-.164.178-.46.591-.352 1.443.24 1.902.052.04.107.078.164.11.678.39 1.539.17 1.947-.49l.025-.04.743-1.291.489.859.142.001-.001.244.05.074c.17.214.458.308.727.226l.044-.015.009-.003c.315-.126.474-.476.367-.793l-.012-.033-.96-2.406-.012-.07c-.022-.115-.063-.224-.124-.323l-.027-.042-.021-.03-.028-.05-.017-.03c-.11-.169-.295-.275-.494-.287h-.038zM8.53 4.824H5.834l.646 1.619h2.005c.556 0 .99-.38.99-.827v-.022c-.015-.416-.422-.765-.946-.77z"/>
</svg>
